<svg xmlns="http://www.w3.org/2000/svg" xmlns:xlink="http://www.w3.org/1999/xlink" width="669.464" height="617.576" viewBox="0 0 669.464 617.576">
  <defs>
    <linearGradient id="a" x1="-43.2" y1="-30.748" x2="14.956" y2="-30.748" gradientTransform="translate(81.435 404.753) rotate(-29.559)" gradientUnits="userSpaceOnUse">
      <stop offset="0"/>
      <stop offset="0.092" stop-color="#282425"/>
      <stop offset="1" stop-color="#fff"/>
    </linearGradient>
    <linearGradient id="b" x1="49.406" y1="-64.664" x2="112.976" y2="-64.664" xlink:href="#a"/>
  </defs>
  <g style="isolation: isolate">
    <g>
      <path d="M613.345,201.488a12.914,12.914,0,0,0-6.379-4.739c-7.7-2.686-15.329-.64-22.63,1.933-.026.01-.045.008-.072.018-19.163,7.388-59.571,58.481-100.609,112.1-2.553,1.608-5.122,3.327-7.648,5.168q-1.33.969-2.642,1.982c-.612.473-1.214.961-1.817,1.447-55.108,22.9-97.5,40.664-124.444,61.553-.975.681-1.893,1.4-2.812,2.172-.034.028-.057.054-.092.082-8.459,7.214-17.233,22.873-9.4,33.444,6.226,8.4,23.8,10.424,33.371,12.162,3.788.688,42.868,6.206,43.248,4.07-3.309,18.591-9.649,46.278,13.584,53.715,35.189,11.263,78.1-12.859,107.523-29.544,19.949-11.31,37.742-26.617,56.031-40.327,18.008-13.5,32.09-32.379,42.986-51.877,7.511-13.441,14.632-27.521,18-42.65,2.254-10.14,6.092-31.548-5.681-37.355-3.785-1.867-36.742-6.463-37.8-2.654,4.446-15.977,8.231-32.3,9.949-48.818C616.914,224.6,619.219,209.639,613.345,201.488Z" fill="#1d1d1b" opacity="0.2"/>
      <path d="M316.32,517.835,176.686,432.727a16.416,16.416,0,0,0-22.537,5.468l-37,60.713a16.417,16.417,0,0,0,5.467,22.536L263.962,607.6a16.419,16.419,0,0,0,22.539-5.468l38.254-62.761C329.453,531.662,326.457,524.015,316.32,517.835Z" fill="#1d1d1b" opacity="0.2"/>
      <g>
        <path d="M281.412,609.717a16.42,16.42,0,0,1-22.539,5.467l-141.35-86.156a16.416,16.416,0,0,1-5.468-22.536l37.006-60.713a16.417,16.417,0,0,1,22.537-5.468L311.231,525.42c10.138,6.179,13.134,13.826,8.436,21.535Z" fill="#c6c6c6"/>
        <path d="M280.01,608.862a14.757,14.757,0,0,1-20.282,4.921L118.377,527.627a14.757,14.757,0,0,1-4.92-20.281l37-60.713a14.758,14.758,0,0,1,20.282-4.92l139.632,85.109c6.533,3.981,13.2,10.558,7.888,19.278Z" fill="#f6f6f6"/>
        <rect x="166.897" y="450.287" width="94.367" height="153.514" transform="translate(-347.375 435.539) rotate(-58.637)" fill="#1d1d1b"/>
        <path d="M147.673,472.355,135.041,493.08a1.1,1.1,0,1,0,1.884,1.148L149.557,473.5a1.1,1.1,0,1,0-1.884-1.148Z" fill="#3c3c3b"/>
        <path d="M309.582,526.428c4.828,3.951,8.679,5.274,7.078,14.754-.9,5.323-11.989,18.14-21.994,34.555-11.379,18.668-14.027,29.473-13.445,29.828s5.807-8.88,17.185-27.548,18.427-29.435,20.023-32.2h-.01C323.485,535.415,316.284,530.363,309.582,526.428Z" fill="#e8e8e8" opacity="0.3"/>
        <path d="M121.34,529.175c-4.827-3.951-7.033-7.973-5.433-17.452.9-5.323,11.989-18.14,21.995-34.555,11.378-18.668,14.027-29.474,13.444-29.829s-5.806,8.88-17.185,27.549-18.427,29.435-20.022,32.2l.007,0C109.082,517.49,114.639,525.239,121.34,529.175Z" fill="#e8e8e8" opacity="0.3"/>
        <path d="M288.082,553.115l16.1-26.412L173.1,446.806l-39.19,64.3C159.769,518.442,237.793,540.441,288.082,553.115Z" fill="#3c3c3b"/>
      </g>
      <g>
        <path d="M185.275,309.8l-19.811-2.332a51.024,51.024,0,0,0-13.179-18.677,4.588,4.588,0,0,1-1.729-4.611,23.072,23.072,0,0,1,1.607-3.83s-8.193-8.1-9.578-7.522-13.377,10.286-21.373,18.125a257.308,257.308,0,0,0-22.055,26.426c-3.7,5.141-14.145,24.67-15.169,26.479s-3.738,3.5-5.627,5.681c-1.959,2.121-3.266,4.912-4.992,6.175S52.9,370.032,48.135,374.348c-9.279,8.406-20.059,19.98-23.954,24.948-6.845,8.734-14.958,21.47-15.315,22.843s9.642,7.45,9.642,7.45a26.072,26.072,0,0,1,3.754-2.157,5.421,5.421,0,0,1,5.174.766A56.391,56.391,0,0,0,50.8,437.153l9.062,23.019c.815,1.633,2.977,2.1,4.834,1.052a4.541,4.541,0,0,0,1.154-.932,3.593,3.593,0,0,0,.729-3.934l-7.07-19.019a32.052,32.052,0,0,0,16.62-6.408c4.969-3.753,13.491-14.594,13.491-14.594s11.459-15.142,7.6-29.518A64.247,64.247,0,0,0,86.71,364.03l3.859-5.378,4.456-4.084c10.138,4.084,13.749,4.364,22.3,4.9,15.855.984,29.791-12.23,29.791-12.23s9.919-9.751,12.994-14.98a27.161,27.161,0,0,0,3.684-17.538l18.719,1.94a4.36,4.36,0,0,0,4.781-2.635A2.99,2.99,0,0,0,185.275,309.8Z" fill="#1d1d1b" opacity="0.2"/>
        <g>
          <path d="M65.843,460.281a3.88,3.88,0,0,1-6.4-.652L34.53,413.051a3.883,3.883,0,0,1,.164-3.936l92.325-142.773a3.876,3.876,0,0,1,6.51,4.21L42.446,411.407l23.835,44.562A3.88,3.88,0,0,1,65.843,460.281Z" fill="#1d1d1b"/>
          <path d="M186.524,315.25a3.881,3.881,0,0,1-4.161,1.215l-48.152-15.339L12.257,416.293a3.877,3.877,0,0,1-5.324-5.636L130.549,293.92a3.876,3.876,0,0,1,3.839-.876l50.331,16.033a3.88,3.88,0,0,1,1.805,6.173Z" fill="#1d1d1b"/>
          <g>
            <path d="M148.163,294.6c2.769,3.026,8.777,12.154,7.985,22.746a22.6,22.6,0,0,1-3.773,10.534,64.107,64.107,0,0,1-9.386,11.1c-11.653,10.663-19.588,10.958-24.769,10.6a60.344,60.344,0,0,1-21.813-6.045c-2.263-.971-9.142-6.023-10.077-8.524-6.223-16.646,25.837-55.036,38.846-55.578C128.473,279.3,132.124,277.074,148.163,294.6ZM18.56,406.366c.434,3.271-1.124,7.252,18.911,20.023,3.458,2.2,13.486,6.546,23.782,3.937a22.594,22.594,0,0,0,9.725-5.536,64.109,64.109,0,0,0,9.309-11.16c8.491-13.32,7.411-21.186,6.166-26.228a60.329,60.329,0,0,0-9.721-20.441C75.385,364.9,69.222,359,66.6,358.506,49.125,355.251,16.849,393.459,18.56,406.366Z" fill="#f7f3dd" opacity="0.33"/>
            <path d="M108.511,278.1c-4.468,4.566-14.412,16.968-21.244,27.477-3.508,5.4-12.954,26.209-13.891,28.132s-3.685,3.574-5.511,5.831c-1.907,2.188-3.059,5.179-4.791,6.434s-20.6,14.154-25.31,18.541c-9.172,8.543-19.672,20.48-23.4,25.668C7.82,399.3.267,412.761.005,414.257s10.933,9.12,10.933,9.12a22.341,22.341,0,0,1,3.819-2.074,6,6,0,0,1,5.586,1.3c1.923,1.7,31.46,22.852,52.192,7.257,4.977-3.743,13.13-15.06,13.13-15.06s10.915-15.847,5.548-32.168A87.363,87.363,0,0,0,76.9,354.8c-.947-1.271-.682-3.991,1.341-6.546,2.167-2.434,4.8-3.164,6.216-2.451a87.379,87.379,0,0,0,29.89,9.294c17,2.468,30.727-11.02,30.727-11.02s9.738-9.984,12.566-15.533c11.781-23.113-14.149-48.555-16.161-50.155a6,6,0,0,1-2.244-5.277,22.4,22.4,0,0,1,1.383-4.12s-9.442-9.711-10.871-9.194S116.362,270.074,108.511,278.1ZM76.732,366.961A60.329,60.329,0,0,1,86.453,387.4c1.245,5.042,2.325,12.908-6.166,26.228a64.109,64.109,0,0,1-9.309,11.16,22.594,22.594,0,0,1-9.725,5.536c-10.3,2.609-20.324-1.732-23.782-3.937-20.035-12.771-18.477-16.752-18.911-20.023-1.711-12.907,30.565-51.115,48.037-47.86C69.222,359,75.385,364.9,76.732,366.961ZM148.163,294.6c2.769,3.026,8.777,12.154,7.985,22.746a22.6,22.6,0,0,1-3.773,10.534,64.107,64.107,0,0,1-9.386,11.1c-11.653,10.663-19.588,10.958-24.769,10.6a60.344,60.344,0,0,1-21.813-6.045c-2.263-.971-9.142-6.023-10.077-8.524-6.223-16.646,25.837-55.036,38.846-55.578C128.473,279.3,132.124,277.074,148.163,294.6Z" fill="#231f20"/>
            <g opacity="0.55" style="mix-blend-mode: screen">
              <path d="M66.6,358.506C54.005,356.16,33.726,375.35,24.02,391.085a445.132,445.132,0,0,0,62.947-1.195c-.147-.9-.326-1.729-.514-2.488a60.339,60.339,0,0,0-9.721-20.442C75.385,364.9,69.222,359,66.6,358.506Z" fill="url(#a)"/>
              <path d="M125.176,279.434c-9.414.392-28.795,20.6-36.435,38.051,19.486,2.164,43.7,2.815,67.406-1.911.047-9.817-5.372-18.118-7.983-20.972C132.125,277.073,128.473,279.3,125.176,279.434Z" fill="url(#b)"/>
            </g>
          </g>
        </g>
      </g>
      <g>
        <ellipse cx="609.253" cy="116.878" rx="41.842" ry="28.649" transform="translate(-11.109 117.838) rotate(-10.948)" fill="#1d1d1b" opacity="0.2"/>
        <path d="M598.012.931a59,59,0,0,0-68.461,47.693c-5.735,32.075,20.494,86.955,48.8,90.578s61.621-37.735,67.356-69.81A59,59,0,0,0,598.012.931Z" fill="#3c3c3b"/>
        <path d="M635.5,85.276c5.255-4.063,14.963-2.5,20.418.188,10.009,4.924-4.619,17.751-9.334,20.794-29.145,18.818-24.556-10.567-11.084-20.982Zm-8.231-10.647c-23.74,18.352-17.064,62.35,15.714,44.421,11.619-6.355,29.723-15.832,25.982-34.467C665.9,69.341,638.941,65.606,627.268,74.629Z" fill="#3c3c3b"/>
        <path d="M577.014.973a59,59,0,1,0,68.65,47.421A59,59,0,0,0,577.014.973Z" fill="#fff"/>
        <circle cx="587.628" cy="59.008" r="48.835" fill="#432918"/>
        <path d="M630.885,36.318a48.832,48.832,0,0,0-89.828,8.043,48.832,48.832,0,0,0,89.828-8.043Z" fill="#563827"/>
        <g>
          <path d="M626.729,83.037a5.622,5.622,0,0,0,.418,4.132,4.6,4.6,0,0,0-2.951,1.185c-.058.038-.131.087-.22.148-.057,0-.1-.012-.166-.015a5.245,5.245,0,0,0-3.909,1.35,3.076,3.076,0,0,0-1.084,2.365,4.129,4.129,0,0,0-3.522,3.293,4.052,4.052,0,0,0-3.319,1.916,3.992,3.992,0,0,0-.8.561,3.991,3.991,0,0,0-3.153,1.6,5.333,5.333,0,0,0-1.485.731,4.626,4.626,0,0,0-2.708.2c-.107-.038-.206-.08-.318-.116a4.5,4.5,0,0,0-2.355-.2q-2.143.8-.309-.056a4.6,4.6,0,0,0-6.395,1.17c-.21.359-.4.729-.6,1.1a3.289,3.289,0,0,0-1.539.888c-.108.109-.206.227-.313.338a4.186,4.186,0,0,0-4.078,1.009c-.068.066-.267.284-.522.576,0-.19.014-.375.024-.545.238-4.062-3.628-5.459-6.4-3.948-.019-.019-.029-.04-.048-.059a5.86,5.86,0,0,0-.76-.625,9.285,9.285,0,0,0-.2-2.8c-.024-.108-.055-.215-.081-.323a2.873,2.873,0,0,0,0-1.982,4.719,4.719,0,0,0-4.1-3.562c-.113-.017-1.039,0-.532,0a1.926,1.926,0,0,0-1.263.439,6,6,0,0,0-2.491.39,4.546,4.546,0,0,0-1.778,1.143c.077-1.937-.486-3.891-2.486-4.619-2.05-.746-3.941-.008-5.7,1.08l0-.024c.417-2.649-2.147-4.157-4.341-3.841.375-2.377-2.288-4.864-4.61-4.048a13.134,13.134,0,0,1-.322-1.41,3.357,3.357,0,0,0-3.55-2.967,3.82,3.82,0,0,0-.815-.767,4.946,4.946,0,0,0-.834-.453,18.755,18.755,0,0,0,1.318-1.365c2.354-2.724-.637-6.627-3.754-6.393.091-.137.186-.26.27-.414a5.4,5.4,0,0,0,.33-4.184,4.293,4.293,0,0,0-2.867-3.919c-.6-.164-1.634-.451-2.729-.673a5.038,5.038,0,0,0,.153-.593,3.636,3.636,0,0,0,1.137-2.491c0-.06-.006-.112-.007-.171.025,0,.049,0,.073-.006a8.353,8.353,0,0,0,5.733-3.288,3.514,3.514,0,0,0,.672-2.872,5.923,5.923,0,0,0,1.122-2.5,6.99,6.99,0,0,0,2.629-5.229,7.71,7.71,0,0,0,.8-.523,3.8,3.8,0,0,0,1.216-1.852,6.278,6.278,0,0,0,1.421-2.6,4,4,0,0,0,.208-1.726,4.069,4.069,0,0,0,1.723-5.032,4.221,4.221,0,0,0,.418-2.265,3.81,3.81,0,0,0,1.025-1.562,4.48,4.48,0,0,0,2.379-.471,3.864,3.864,0,0,0,1.981-2.349,3.764,3.764,0,0,0,2.972-1.66,3.662,3.662,0,0,0,2.02-1.317,3.439,3.439,0,0,0,5-1.7,2.837,2.837,0,0,1,.463-.93,2.986,2.986,0,0,0,.717-.04c.051-.01.113-.038.169-.055a3.585,3.585,0,0,0,3.6.536,11.1,11.1,0,0,0,2.885-1.873,4.073,4.073,0,0,0,3.238.22,9.95,9.95,0,0,0,.9-.441,3.433,3.433,0,0,0,4.826.193c.245,2.19,2.557,3.087,4.433,2.57a3.643,3.643,0,0,0,4.328-.178c.232-.205,1.052-1.16,1.7-1.926a3.729,3.729,0,0,0,2.342.375,6.686,6.686,0,0,0,.851.851,3.466,3.466,0,0,0,3.455.269c2.551-.991.313-.072,3.081.048-2.5-.108-.006.658.746,1.755a3.71,3.71,0,0,0,3.613,1.278,13.162,13.162,0,0,0,1.814-.662,10.846,10.846,0,0,0,3.7.65,48.834,48.834,0,1,0,12.045,59.127c-.726-.03-1.438-.1-1.953-.063A3.309,3.309,0,0,0,626.729,83.037Z" fill="#b17f4a"/>
          <path d="M633.505,48.305a9.574,9.574,0,0,0,.851,11.046c1.117,1.273-1.358,4.777-1.762,6.11-.792,2.619.421,5.163,1.9,7.257a48.612,48.612,0,0,0,1.17-22.5c-.255-1.393-.579-2.754-.944-4.095A24.563,24.563,0,0,1,633.505,48.305Z" fill="#b17f4a"/>
        </g>
        <path d="M543.413,52.334a.879.879,0,0,1-.142-.054,1.182,1.182,0,0,1-.125-.047l-.1-.059c-.02-.014-.04-.014-.06-.029l-.045-.035c-1.035-.807.121-2.493,1.16-1.681l.049.03c.022.013.029.032.049.046l.089.07a.913.913,0,0,1,.088.1.88.88,0,0,1,.1.113A.987.987,0,0,1,543.413,52.334Zm1.32-6.171a.859.859,0,0,0,.309,1.689A.859.859,0,0,0,544.733,46.163Zm2.238,1.152-.072.019a.351.351,0,0,0,.126.69l.074-.008C547.556,47.966,547.416,47.2,546.971,47.315Zm.81-4.335-.094.123c-.752.986.924,2.144,1.58,1.091l.082-.131A.953.953,0,0,0,547.781,42.98Zm-.918-.613a4.358,4.358,0,0,0-2.939.109l-.015.062a.878.878,0,0,0,.972,1.149.8.8,0,0,0,.582-.413c.548.395,1.689,0,1.423-.836Zm-.288,1.554a.665.665,0,0,0,.239,1.308A.665.665,0,0,0,546.575,43.921Zm2.161-3.782a.6.6,0,0,0,.216,1.18A.6.6,0,0,0,548.736,40.139Zm-.763-1.63c-1.038.4-.454,2.191.712,1.643a1.044,1.044,0,0,0,.564-.591A.886.886,0,0,0,547.973,38.509Zm-.36-2.062c-.026-.019-.053-.036-.08-.054a.749.749,0,0,0-1.021.186l-.067.081a.84.84,0,1,0,1.168-.213Zm2.717.515-.122-.032a.794.794,0,1,0,.074,1.461c.312-.187.632-.453.522-.868A.742.742,0,0,0,550.33,36.962Zm.929,1.7c-.13-.006-.258.006-.388.012-1.185.063-.8,2.159.329,1.8.123-.04.248-.075.367-.126A.894.894,0,0,0,551.259,38.666Zm2.65-1.736a.853.853,0,0,0-.777-.648c-.06-.016-.082-.019-.046,0a.772.772,0,0,0-.136-.011,1.1,1.1,0,0,0-1.321.953,1.111,1.111,0,0,0,1.292,1.177,1.193,1.193,0,0,0,.711-.337A1.05,1.05,0,0,0,553.909,36.93Zm0,0v0c-.011-.028-.011-.056-.024-.084C553.893,36.875,553.9,36.9,553.91,36.933Zm-2.286-3.281-.12.075c-.641.4-.81,1.544.091,1.793l.126.035a1.05,1.05,0,0,0,1.383-.881C553.167,33.954,552.315,33.221,551.624,33.652Zm-2.575-.008a.878.878,0,0,0,.316,1.726A.878.878,0,0,0,549.049,33.644Zm4.326-3.394-.1-.04a.979.979,0,0,0-1.3.826,1.051,1.051,0,0,0,.019.3,1.06,1.06,0,0,0-.3-.07c-.07-.011-.668.056-.164.065a2.233,2.233,0,0,0-.489.053c-1.43.288-.623,2.492.6,1.826a1.18,1.18,0,0,0,.606-1.432,1.093,1.093,0,0,0,1.123.215l.1-.035C554.264,31.674,554.055,30.518,553.375,30.25Zm1.545,2.882a.323.323,0,0,0-.55.191l-.021.141a.379.379,0,0,0,.345.411h.072A.383.383,0,0,0,554.92,33.132Zm-1.135-5.609a.73.73,0,0,0,.263,1.435A.73.73,0,0,0,553.785,27.523Zm2.632-2.688-.036-.048a.246.246,0,0,0-.279-.193.561.561,0,0,0-.444.281.486.486,0,0,0,.353.751C556.4,25.66,556.737,25.136,556.417,24.835Zm1.825-1.236-.062-.017c-.631-.163-.435.909.1.533l.053-.036A.284.284,0,0,0,558.242,23.6Zm3.482-1.172-.085-.124c-.6-.879-1.726.745-.69,1l.146.035A.577.577,0,0,0,561.724,22.427Zm.74-.807a.84.84,0,0,0,.3,1.652A.84.84,0,0,0,562.464,21.62Zm-.921-1.675a.852.852,0,0,0-.773,1.5C561.8,22.154,562.707,20.337,561.543,19.945Zm1.987-.68a.868.868,0,1,0,.269,1.474l.1-.079a.8.8,0,0,0-.367-1.395Zm2.439.436-.123-.095c-.851-.654-1.858.8-.944,1.367l.131.082A.823.823,0,0,0,565.969,19.7Zm2.638-1.438a.811.811,0,0,0-.486,1.293c-.022,0-.039-.012-.061-.012h-.137a1.052,1.052,0,1,0,.594,1.847l.111-.076a.98.98,0,0,0,.076-1.439.725.725,0,0,0,.2,0A.822.822,0,0,0,568.607,18.263Zm-25.769,44.63a.693.693,0,0,0,.25,1.362A.693.693,0,0,0,542.838,62.893Zm-.7,3.385c.029.1.024.192.054.29a.276.276,0,0,0,.311.216.5.5,0,0,0,.458-.544C542.976,65.589,541.972,65.734,542.134,66.278Zm-.376,2.093a.863.863,0,0,0,.087.552.15.15,0,0,0,.254.02.907.907,0,0,0,.229-.521C542.381,68.052,541.76,68,541.758,68.371Zm.026,1.124a.723.723,0,0,0,.108.31.111.111,0,0,0,.21-.038.718.718,0,0,0-.009-.329A.157.157,0,0,0,541.784,69.5Zm2.989.918a6.691,6.691,0,0,0-1.1.01.232.232,0,0,0-.1.448,1.321,1.321,0,0,0,1.26-.1A.213.213,0,0,0,544.773,70.413Zm2.107,1.118a.8.8,0,0,0-.437-.388c-.735-.263-1.031.847-.366,1.067a.861.861,0,0,0,.109.056.391.391,0,0,0,.637-.142l.014-.037A.541.541,0,0,0,546.88,71.531Zm-2.189,4.132c-.064.054.017.148.084.1C544.991,75.6,544.908,75.474,544.691,75.663Zm-.715.668c-.124.234.131.413.273.189C544.365,76.336,544.074,76.145,543.976,76.331Zm-1.744-1.157a.24.24,0,0,0,.086.472A.24.24,0,0,0,542.232,75.174Zm2.293-3.205c-.03-.017-.061-.033-.092-.049a.757.757,0,1,0,.193,1.052l.068-.079A.659.659,0,0,0,544.525,71.969Zm1.357,5.1a.527.527,0,0,0,.189,1.036A.527.527,0,0,0,545.882,77.068Zm.756,3.1.038.061a.55.55,0,0,0,1.035-.189c0-.024.009-.047.014-.071C547.9,79.009,546.131,79.333,546.638,80.172Zm.745,1.08.037.061a.606.606,0,0,0,1.14-.209l.013-.07C548.775,79.976,546.82,80.334,547.383,81.252Zm3.351-.222-.073.006c-.441.04-.3.791.123.672l.071-.02A.335.335,0,0,0,550.734,81.03ZM549.7,83.7a.7.7,0,0,0,1.348-.247A.7.7,0,1,0,549.7,83.7Zm-2.328-.123A.651.651,0,0,0,547,84.637l.044.045a.614.614,0,0,0,1.028-.188l.025-.058A.651.651,0,0,0,547.373,83.58Zm4.645,2.808a.867.867,0,0,0-.743-.514c-.839-.144-.98,1.268-.117,1.325a2.443,2.443,0,0,1,.282.026A.59.59,0,0,0,552.018,86.388Zm2.027.016a1.61,1.61,0,0,1-.2.067c-.586.019-.369.872.119.648a.475.475,0,0,0,.326-.487C554.293,86.509,554.188,86.359,554.045,86.4Zm2.069-1.457c-.286-.849-1.719-.4-1.286.521a.836.836,0,0,0,.477.46A.681.681,0,0,0,556.114,84.947Zm.67,3.619a.707.707,0,0,0-.3-.46.661.661,0,0,0-1.018.657.641.641,0,0,0,1.032.37.567.567,0,0,0,.143-.108l.009-.007,0-.007A.547.547,0,0,0,556.784,88.566ZM555.505,90.8c-.368-.254-.667.43-.188.521C555.6,91.374,555.735,90.96,555.505,90.8Zm1.617,1.759a.693.693,0,0,0,.249,1.362A.693.693,0,0,0,557.122,92.56Zm4.3,1.508a3.33,3.33,0,0,0-.586-.21.2.2,0,0,0-.067-.207.51.51,0,0,0-.236-.091.221.221,0,0,0-.29.213.57.57,0,0,0,0,1.131,1.447,1.447,0,0,0,1.251-.429A.243.243,0,0,0,561.424,94.068Zm.8-1.531-.078,0a.564.564,0,0,0,.068-.187.642.642,0,0,0-1.05-.54l-.063.06.014,0a.546.546,0,0,0-.173.648.552.552,0,0,0,.276.3.692.692,0,0,0,.8-.088.082.082,0,0,0,.093.029l.142-.044A.093.093,0,0,0,562.223,92.537Zm-3.4-6.284a.988.988,0,0,0-.706,1.388c.017.035.046.059.064.093a.974.974,0,0,0,.059,1.5l.041.032a.891.891,0,0,0,1.242-.227l.027-.044a1.008,1.008,0,0,0,.055-.919,1.1,1.1,0,0,0,.256-.325,1.212,1.212,0,0,0,.112-.447A.987.987,0,0,0,558.822,86.253Zm6.395,8.7a.868.868,0,0,0,.312,1.706A.868.868,0,0,0,565.217,94.955Zm1.488-2.534a.286.286,0,0,0,.1.563A.286.286,0,0,0,566.705,92.421Zm-1.788-1.568a.526.526,0,0,0,.19,1.035A.526.526,0,0,0,564.917,90.853Zm.409-1.683-.134-.081a.83.83,0,1,0,.211,1.155l.1-.124A.684.684,0,0,0,565.326,89.17Zm1.276,1.609.04.218a.988.988,0,0,0,1.943-.355l-.04-.218A.988.988,0,0,0,566.6,90.779Zm.956,5.381c.016.071.031.144.046.216a.862.862,0,0,0,1.694-.31l-.033-.219A.868.868,0,0,0,567.558,96.16Zm3.081,2.739a.932.932,0,0,0-1.833.335c.148.693.506,1.287,1.306,1.188a.758.758,0,0,0,.605-.664c-.016.158,0,.107.044-.15a.879.879,0,0,0-.038-.35C570.692,99.138,570.66,99.021,570.639,98.9Zm1.831-1.638-.221.02c-.726.066-.5,1.3.2,1.108l.214-.06A.543.543,0,0,0,572.47,97.261Zm1.749-2.339a.462.462,0,0,0,.166.908A.462.462,0,0,0,574.219,94.922Zm-3.408,0c0,.091.008.182.013.273h0c-.006-.038-.009-.059-.011-.079a.383.383,0,0,1-.013.113l.009,0a.364.364,0,0,0,.128.434.849.849,0,0,0,1.27-.429C572.626,94.192,570.764,93.911,570.811,94.919Zm0,.2c0-.05-.007-.06,0,0Zm4.321-1.674a.487.487,0,0,0-.227-.088c-.452-.095-.3.757.093.508a.5.5,0,0,0,.181-.163A.189.189,0,0,0,575.132,93.44Zm2.967.941a.781.781,0,0,0-.71-.623.669.669,0,0,0,.094-.465l-.023-.146a.7.7,0,0,0-1.38.253c.01.048.021.1.031.144a.65.65,0,0,0,.5.524.71.71,0,0,0-.111.606c.05.216.109.43.16.646a1.482,1.482,0,0,0,.292.562c.031.04.541.465.183.141a.47.47,0,0,0,.53.11C578.438,95.845,578.241,95,578.1,94.381Zm-.312,3.373a.508.508,0,0,0-.914.442C577.261,99.033,578.192,98.627,577.787,97.754Zm-3.2,2.224c.012.048.022.1.034.144a.834.834,0,0,0,1.639-.3c-.007-.049-.014-.1-.02-.147A.841.841,0,0,0,574.59,99.978Zm5.869,4.253a3.528,3.528,0,0,0-.314-.422c-.432-.587-1.21-.179-1.377.359a.931.931,0,0,0-1.013-.584.911.911,0,0,0-.652,1.283l.034.063a.888.888,0,0,0,1.669-.291.656.656,0,0,0,.135.2,1,1,0,0,0,1.19.328A.706.706,0,0,0,580.459,104.231Zm4.5-1.822a.812.812,0,0,0-.539-.49.7.7,0,0,0-.839.991c-.472-.544-1.582-.223-1.382.631a1.366,1.366,0,0,0,.255.55c.616.819,1.818-.219,1.2-1.035l.1.2a.823.823,0,0,0-.1-.23.6.6,0,0,0,.245.18C584.38,103.717,585.235,103.057,584.955,102.409Zm-.731,3.238c.01.021.022.042.032.064a.817.817,0,0,0,1.538-.282l.006-.071C585.931,103.975,583.613,104.4,584.224,105.647Zm-2.868-2.426a1.316,1.316,0,0,0-.984-.106.312.312,0,0,0-.245.354,1.319,1.319,0,0,0,.448.883A.7.7,0,1,0,581.356,103.221ZM579.8,99.973a.988.988,0,0,0,.355,1.943A.988.988,0,0,0,579.8,99.973Zm-5.5,1.128a.868.868,0,0,0,.312,1.707A.868.868,0,0,0,574.3,101.1Zm-1.506.136-.08-.068a.766.766,0,0,0-1.182.764l.03.1C571.983,103.426,573.889,102.173,572.792,101.237Zm-4.769-1.278a1.362,1.362,0,0,1-.287.063.541.541,0,0,0-.388.764,1.13,1.13,0,0,0,.946.662C569.436,101.65,569.382,99.492,568.023,99.959Zm-3.638-.86.025.067a.386.386,0,0,0,.728-.133v-.072A.393.393,0,1,0,564.385,99.1Zm-.99-1.794a.361.361,0,0,0,.129.709A.361.361,0,0,0,563.4,97.305Zm.5-3.945a1.036,1.036,0,0,0-.848-.278c-.627.115.313-.054-.173.035a.55.55,0,0,0-.274.14.52.52,0,0,0-.152.476l.036-.175a.752.752,0,0,0-.032.385,1.5,1.5,0,0,0,.182.5A.85.85,0,1,0,563.891,93.36Zm-3.973-3.573a.7.7,0,0,0,.252,1.38A.7.7,0,0,0,559.918,89.787Zm-3.239.348a.794.794,0,0,0,.285,1.562A.794.794,0,0,0,556.679,90.135Zm-5.691-1.471c-.011.013-.023.026-.034.04a.806.806,0,0,0,.207,1.128l.046.026a.858.858,0,1,0-.219-1.194Zm38.517,15.952a.434.434,0,0,0,.155.853A.434.434,0,0,0,589.505,104.616Zm1.772,1.167.038.061a.531.531,0,0,0,1-.183l.013-.07C592.51,104.657,590.775,104.974,591.277,105.783Zm2.79-.7-.059-.023c-.866-.335-.559,1.341.131.721l.048-.042A.391.391,0,0,0,594.067,105.085Zm2.765-1.247a.949.949,0,0,0-.381-.259.591.591,0,0,0-.655.235.626.626,0,0,0,.349,1.085c.105,0,.21,0,.315-.011A.646.646,0,0,0,596.832,103.838Zm-.8-2.376a.641.641,0,0,0-.892-.453.89.89,0,0,0-.562.616c-.4,1.2,1.65,1.436,1.51.127A.868.868,0,0,0,596.028,101.462Zm1.469,1.421a6.056,6.056,0,0,0-.063-.778.573.573,0,0,0-1.126.206,2.489,2.489,0,0,0,.353,1.087,2.8,2.8,0,0,0,.646.385.217.217,0,0,0,.32-.1A.716.716,0,0,0,597.5,102.883Zm.749,1.095a.709.709,0,0,0,.255,1.394A.709.709,0,0,0,598.246,103.978Zm1.648-.84a.61.61,0,0,0,.219,1.2A.61.61,0,0,0,599.894,103.138Zm-.048-2.964-.039-.05a.533.533,0,0,0-.9.164l-.018.061C598.552,101.486,600.564,101.119,599.846,100.174Zm2.881.666c-.261-.256-.7.114-.434.374.109.107.218.214.323.325a.16.16,0,0,0,.267-.049A.543.543,0,0,0,602.727,100.84Zm.316,1.489-.072,0a.265.265,0,1,0,.093.508l.068-.022A.259.259,0,0,0,603.043,102.329Zm0,1.15-.041-.09a.372.372,0,0,0-.7.128l.026-.043a.394.394,0,0,0,.648.447l.037-.041A.393.393,0,0,0,603.045,103.479Zm-1.791-1.859a.6.6,0,0,0-1.136.208l0,.072a.6.6,0,1,0,1.156-.212Zm2.871.847a.8.8,0,0,0,.289,1.581A.8.8,0,0,0,604.125,102.467Zm2.27-.724a.813.813,0,0,0,.292,1.6A.813.813,0,0,0,606.4,101.743Zm2.478-.924-.045-.027a.708.708,0,0,0-.807.022l-.034.016a.716.716,0,0,0,.247,1.348.616.616,0,0,1,.141.021C609.127,102.36,609.492,101.2,608.873,100.819Zm1.779-1.07-.057-.131a.858.858,0,0,0-1.617.3l-.007.142C608.9,101.522,611.24,101.093,610.652,99.749Zm1.778-.912a.914.914,0,0,0-1.212-.168.633.633,0,0,0,.218,1.191,1.091,1.091,0,0,0,.8-.109A.6.6,0,0,0,612.43,98.837Zm2.305.076a.175.175,0,0,0,.063.345A.175.175,0,0,0,614.735,98.913Zm.475-1.455-.065-.066a.626.626,0,0,0-1.051.192c-.01.028-.019.055-.028.083a.673.673,0,1,0,1.144-.209Zm-.962-1.787h-.072a.676.676,0,1,0,.238,1.3l.066-.025A.674.674,0,0,0,614.248,95.671Zm1.669-.149a.788.788,0,0,0,.283,1.55A.788.788,0,0,0,615.917,95.522Zm1.912-.615a.758.758,0,0,0,.112-.1c.021-.028.043-.056.065-.083a.708.708,0,0,0,.1-.7.914.914,0,1,0-1.528,0,.742.742,0,0,0,.294.911l.089.054a.787.787,0,0,0,.309.1.725.725,0,0,0,.462,1.352l-.055.013C618.79,96.559,618.64,94.965,617.829,94.907Zm2.359-3.119a.739.739,0,0,0,.265,1.453A.739.739,0,0,0,620.188,91.788Zm2.383-.924A.628.628,0,0,0,622.8,92.1.628.628,0,0,0,622.571,90.864Zm.3-2.882-.218.043a.738.738,0,0,0-.488,1.112.659.659,0,0,0-.795.231l-.024.047a.718.718,0,0,0,.713,1.1.688.688,0,0,0,.439-1.081.705.705,0,0,0,.424.06l.219-.037A.751.751,0,0,0,622.87,87.982Zm-2.288.216a.656.656,0,0,0,.236,1.289A.656.656,0,0,0,620.582,88.2Zm6.836-2.846a.453.453,0,0,0,.163.89A.453.453,0,0,0,627.418,85.352Zm2.064-2.159-.069-.125a.474.474,0,0,0-.892.163l-.02.141C628.379,84.238,629.9,83.959,629.482,83.193Zm-2.247-1.307a.646.646,0,0,0,.232,1.271A.646.646,0,0,0,627.235,81.886Zm2.157-.312h0a.61.61,0,0,0-.155-.007l-.077.01c-.01,0-.017,0-.027,0l-.039.009a.608.608,0,0,0,.22,1.2l.038,0c.01,0,.016-.008.026-.009l.075-.018a.583.583,0,0,0,.141-.061l0,0A.59.59,0,0,0,629.392,81.574Zm4.7-31.984a1.35,1.35,0,0,0,.485,2.654A1.35,1.35,0,0,0,634.09,49.59Zm1,3.747-.035-.054a.842.842,0,0,0-1.424.26l-.015.063a.867.867,0,1,0,1.474-.269Zm-.465,3.618-.06-.129a.2.2,0,0,0-.385.07l-.01.142C634.137,57.436,634.789,57.317,634.621,56.955Zm.965,1.238-.039-.061a.82.82,0,0,0-1.541.282l-.015.07c-.116.546.5.99.989.9A.844.844,0,0,0,635.586,58.193ZM634.224,61a.893.893,0,0,0-.344,1.6l.044.027a.849.849,0,0,0,1.157-.211l.032-.042A.893.893,0,0,0,634.224,61Zm-.317,4.291.031.064a.649.649,0,0,0,1.223-.224c0-.023.005-.047.007-.071C635.273,63.95,633.417,64.289,633.907,65.287Zm-.378,1.21-.134.052a.158.158,0,0,0,.055.3h.143A.183.183,0,1,0,633.529,66.5Zm-.51,1.044a.577.577,0,0,0-.222,1.033l.041.033a.524.524,0,0,0,.727-.133l.028-.045A.578.578,0,0,0,633.019,67.541ZM566.081,16.51l-.043-.03a.754.754,0,0,0-1.124.359l-.014.035a.671.671,0,0,0,.124.677l.026.028a.754.754,0,0,0,1.178-.063l.029-.043A.7.7,0,0,0,566.081,16.51Zm1.673-.236-.1.078a.594.594,0,0,0,.183,1l.122.038a.659.659,0,1,0-.2-1.119Zm3.39-.1a.857.857,0,0,0,.33-.9,3.21,3.21,0,0,0-.206-.684.957.957,0,0,0-1.8.33,3.261,3.261,0,0,0,.048.712.888.888,0,0,0,.931.774c-.434.52-.052,1.7.786,1.427l.071-.023A.827.827,0,0,0,571.144,16.172Zm1.824-2.01-.119-.1c-.906-.762-2.073.926-1.039,1.5l.136.076A.9.9,0,0,0,572.968,14.162Zm2.781,2.11a.685.685,0,0,0-.581.572.92.92,0,0,0-.5-.787l-.008-.028c-.895-.647-1.9.845-.965,1.4a1.421,1.421,0,0,0,.619.231.727.727,0,0,0,.846-.609.72.72,0,0,0,.858.713A.757.757,0,0,0,575.749,16.272Zm-1.016-1.823c.019.072.037.144.056.216a.8.8,0,0,0,1.58-.289c-.008-.074-.017-.148-.024-.221C576.229,13.1,574.469,13.424,574.733,14.449Zm2.734-1.1-.132-.081a.674.674,0,0,0-.766,1.109l.122.1C577.389,15.006,578.218,13.807,577.467,13.345Zm2.508,2.259,0,0C579.891,15.63,579.914,15.623,579.975,15.6Zm.294,1.577c-.015,0-.027-.005-.042-.005S580.206,17.184,580.269,17.181Zm-.041-1.654c.3-.1-.1.031-.253.077a1,1,0,0,0-.257.131.777.777,0,0,0-1.13-.776l-.13.058a.8.8,0,0,0,.275,1.506l.142.008a.85.85,0,0,0,.488-.111.794.794,0,0,0,.864.756c.07-.015.384-.054.4-.064a.91.91,0,0,0,.387-.363C581.319,16.233,580.95,15.3,580.228,15.527Zm-.856-2.989a1.446,1.446,0,0,0-.178.291,1.011,1.011,0,1,0,1.79.923,1.318,1.318,0,0,0,.128-.586A.964.964,0,0,0,579.372,12.538Zm3.083.18a.979.979,0,0,0,.353,1.925A.979.979,0,0,0,582.455,12.718Zm1.24,2.407-.129.059a.9.9,0,0,0,.31,1.7l.08.005a.934.934,0,0,0,.993-.553l.027-.053C585.378,15.5,584.362,14.828,583.7,15.125Zm2.332,1.323.048,0c-.045-.012-.085-.014-.127-.023-.022,0-.041-.016-.063-.02s-.016.005-.025.005a1.343,1.343,0,0,0-.478,0,.813.813,0,0,0,.292,1.6,1.51,1.51,0,0,0,.634-.283C586.837,17.352,586.525,16.636,586.027,16.448Zm.434-3.494Zm.071.021-.071-.021.006,0a.711.711,0,1,0,.466.73l.009-.069A.621.621,0,0,0,586.532,12.975Zm1.362-.41a.686.686,0,0,0-.97.584,1.224,1.224,0,0,0,.079.542c.192.592,1.066.549,1.371.107A.817.817,0,0,0,587.894,12.565Zm1.8,2-.136-.076a.868.868,0,0,0-.986,1.428l.119.1C589.567,16.756,590.693,15.126,589.7,14.568Zm.818,3.529a1.505,1.505,0,0,1-.831-.291c-.773-.537-.122-1.914.772-1.5a.814.814,0,0,1,.652.142.979.979,0,0,1,.3.351A.915.915,0,0,1,590.513,18.1Zm.765-4.894a.584.584,0,0,0-.567-.418l-.069-.015a.813.813,0,0,0-.688,1.339A.811.811,0,0,0,591.278,13.2Zm1.214-.184a.638.638,0,0,0-.9.5l-.024.141a.687.687,0,0,0,.625.746,1.155,1.155,0,0,0,.327-.02.682.682,0,0,0,.529-.767l0-.038A.692.692,0,0,0,592.492,13.019Zm2.462.725a.874.874,0,0,0-.737.716,1.188,1.188,0,0,0-.482,0,1.1,1.1,0,0,0-.822,1.37.686.686,0,0,0-.128,0,.781.781,0,0,0-.448,1.268l.089.091a.7.7,0,0,0,1.176-.215c.018-.039.035-.078.052-.117a.642.642,0,0,0,.048-.327,1,1,0,0,0,1.232-.656.118.118,0,0,1,.04-.122.882.882,0,0,0,.05-.116.924.924,0,0,0,.279,0A.97.97,0,0,0,594.954,13.744Zm-1.218,3.616c-.772.435.2,1.784.858.9a.729.729,0,0,0,.139-.646A.575.575,0,0,0,593.736,17.36Zm2.047-6-.177-.111a.914.914,0,0,0-1.039,1.5l.166.126C595.684,13.6,596.793,12,595.783,11.362Zm4.823,3.327a.615.615,0,0,0,.113-.524c-.033-.135-.081-.265-.123-.4-.364-1.116-2.289-.075-1.409.923a1.22,1.22,0,0,0,.322.271.953.953,0,1,0,1.1-.274Zm-3.848,2.16-.1,0a.886.886,0,1,0,.651,1.386c.017-.032.034-.064.05-.1C597.613,17.664,597.455,16.828,596.758,16.849Zm6.507-1.171a.987.987,0,0,0-.7,1.375l.022.068a.964.964,0,0,0,1.819-.333l0-.072A.987.987,0,0,0,603.265,15.678Zm2.763,1.022.05.134a.71.71,0,0,0,.144.227.383.383,0,0,0-.307.015c-.245.133-.193.274-.246.511-.193.87,1.565.541.891-.286-.014-.017-.033-.032-.049-.049a.879.879,0,0,0,1.215-.72V16.39A.886.886,0,1,0,606.028,16.7Zm-2.294-3.254a1.009,1.009,0,0,0-.972.175.837.837,0,0,0,.259,1.416,1.01,1.01,0,0,0,.971-.18A.836.836,0,0,0,603.734,13.446Zm6.111,3.731-.072.018a.817.817,0,0,0,.294,1.606l.074-.008C611.2,18.681,610.872,16.907,609.845,17.177Zm2.781.984a.827.827,0,0,0-.9-.549.8.8,0,0,0-.459,1.3.9.9,0,0,0,.162.154.814.814,0,0,0-1.09.3c-.8,1.153,1.295,2.072,1.612.831a.99.99,0,0,0-.384-1.042.92.92,0,0,0,.783,0A.653.653,0,0,0,612.626,18.161Zm1.042,1.038a.656.656,0,0,0,.236,1.289A.656.656,0,0,0,613.668,19.2Z" fill="#432918"/>
        <g>
          <path d="M567.9,90.133a.354.354,0,0,0-.325.43l.04.218a.4.4,0,0,0,.781-.143l-.04-.218A.354.354,0,0,0,567.9,90.133Z" fill="#fff" opacity="0.2"/>
          <path d="M584.545,102.355a.2.2,0,0,0-.04.2l-.981.637a.259.259,0,0,0-.233-.059c-.066.012-.112.043-.128.168a.789.789,0,0,0,.153.33c.052.069.077.064.095.061a.31.31,0,0,0,.192-.164.178.178,0,0,0,0-.179l-.065-.126.984-.666.093.045.084.09c.026,0,.076-.037.108-.153C584.763,102.438,584.74,102.409,584.545,102.355Z" fill="#fff" opacity="0.2"/>
          <path d="M572.679,101.51a.2.2,0,0,0-.161.242c.067.221.141.208.185.2a.311.311,0,0,0,.224-.179c.018-.067-.091-.166-.127-.2Z" fill="#fff" opacity="0.2"/>
          <path d="M568.76,95.649a.341.341,0,0,0-.216.12.188.188,0,0,0-.016.157l.047.217a.27.27,0,0,0,.531-.1l-.033-.219c-.015-.1-.054-.131-.069-.141A.341.341,0,0,0,568.76,95.649Z" fill="#fff" opacity="0.2"/>
          <path d="M574.8,101.573c-.2.036-.218.192-.2.317s.092.264.294.227a.238.238,0,0,0,.195-.317C575.069,101.676,575,101.536,574.8,101.573Z" fill="#fff" opacity="0.2"/>
          <path d="M553.449,30.65a.3.3,0,0,0-.166-.015.382.382,0,0,0-.317.468l.012.08.066.063a.492.492,0,0,0,.423.107l.19-.06c.048-.016.122-.043.124-.193A.482.482,0,0,0,553.449,30.65Z" fill="#fff" opacity="0.2"/>
          <path d="M585.331,104.988a.323.323,0,0,0-.22.119c-.015.028,0,.095.068.235a.207.207,0,0,0,.237.109c.063-.012.17-.052.189-.257a.244.244,0,0,0-.026-.173A.327.327,0,0,0,585.331,104.988Z" fill="#fff" opacity="0.2"/>
          <path d="M568.67,100.4l-.06.012a2.056,2.056,0,0,1-.284.074l-.017,0c.1.165.19.221.481.272a.185.185,0,0,0,.062,0h0a.34.34,0,0,0,.022-.32C568.855,100.4,568.841,100.364,568.67,100.4Z" fill="#fff" opacity="0.2"/>
          <path d="M565.07,89.445a.222.222,0,1,0,.08.436.294.294,0,0,0,.183-.113l.073-.206-.129-.078A.3.3,0,0,0,565.07,89.445Z" fill="#fff" opacity="0.2"/>
          <path d="M570.449,98.885a.26.26,0,0,0-.1-.188.412.412,0,0,0-.3-.045.4.4,0,0,0-.255.144.251.251,0,0,0-.023.2c.168.786.485.746.655.725h0c.02,0,.07-.075.1-.2l.017,0,.018-.08a.537.537,0,0,0-.037-.21C570.5,99.121,570.469,99.006,570.449,98.885Z" fill="#fff" opacity="0.2"/>
          <path d="M575.77,99.5a.314.314,0,0,0-.2.11c-.008.011-.028.042-.008.126l.033.144a.243.243,0,0,0,.478-.088l-.02-.146c-.011-.085-.041-.107-.053-.115A.314.314,0,0,0,575.77,99.5Z" fill="#fff" opacity="0.2"/>
          <path d="M553.488,36.762s-.083-.006-.114-.01l-.044.008-.11-.024a.51.51,0,0,0-.61.426.484.484,0,0,0,.158.4.533.533,0,0,0,.453.14l.035-.006a.574.574,0,0,0,.346-.162.5.5,0,0,0,.129-.563A.261.261,0,0,0,553.488,36.762Z" fill="#fff" opacity="0.2"/>
          <path d="M577.721,94.236l-.165-.03-.077.1c-.009.013-.029.039-.01.121l.159.641a.886.886,0,0,0,.143.291c.022.02.065.058.11.1.173-.08.216-.273.035-1.054A.193.193,0,0,0,577.721,94.236Z" fill="#fff" opacity="0.2"/>
          <path d="M568.564,20.044l-.176-.019h-.076a.759.759,0,0,0-.127.011.458.458,0,0,0-.415.53.423.423,0,0,0,.537.338.709.709,0,0,0,.271-.112l.112-.075a.2.2,0,0,0,.089-.153.567.567,0,0,0-.133-.415Z" fill="#fff" opacity="0.2"/>
          <path d="M581.484,103.639a.742.742,0,0,0-.311-.087l.016.033-.994.633a1.38,1.38,0,0,0-.214-.213.378.378,0,0,0-.256.23l-.008.023.025.05c.284.272.376.256.443.243a.589.589,0,0,0,.11-.033.151.151,0,0,0,.035-.119l1.037-.592c.066.062.115.079.136.075a.158.158,0,0,0,.1-.12C581.607,103.723,581.568,103.681,581.484,103.639Z" fill="#fff" opacity="0.2"/>
          <path d="M561.747,20.4a.243.243,0,0,0-.128-.013.314.314,0,0,0-.226.238.2.2,0,0,0,.106.226.258.258,0,0,0,.164.057.38.38,0,0,0,.228-.327C561.9,20.489,561.877,20.439,561.747,20.4Z" fill="#fff" opacity="0.2"/>
          <path d="M562.964,22.091c-.145.027-.2.123-.174.285s.118.232.263.206.2-.122.174-.285S563.108,22.065,562.964,22.091Z" fill="#fff" opacity="0.2"/>
          <path d="M578.254,104.056a.339.339,0,0,0-.23.19.3.3,0,0,0,.027.3.3.3,0,0,0,.563-.1l.018-.113-.025-.065A.341.341,0,0,0,578.254,104.056Z" fill="#fff" opacity="0.2"/>
          <path d="M565.716,95.426a.238.238,0,0,0-.194.318c.022.123.092.264.294.227a.239.239,0,0,0,.195-.317C565.988,95.53,565.918,95.389,565.716,95.426Z" fill="#fff" opacity="0.2"/>
          <path d="M545.232,46.635c-.156.028-.219.131-.187.306s.127.249.284.22.219-.132.187-.306S545.389,46.606,545.232,46.635Z" fill="#fff" opacity="0.2"/>
          <path d="M549.549,34.116a.246.246,0,0,0-.2.328c.023.128.1.273.3.235a.246.246,0,0,0,.2-.328C549.829,34.223,549.758,34.078,549.549,34.116Z" fill="#fff" opacity="0.2"/>
          <path d="M544.284,50.916l-.025-.034c-.031-.022-.125-.1-.125-.1a.3.3,0,0,0-.254-.087.519.519,0,0,0-.343.385.416.416,0,0,0,.162.451.627.627,0,0,1,.08.052l.2.074a.391.391,0,0,0,.187.014.414.414,0,0,0,.3-.264.4.4,0,0,0-.109-.425Z" fill="#fff" opacity="0.2"/>
          <path d="M552.063,88.8a.444.444,0,0,0-.262.167.253.253,0,0,0,.083.259.407.407,0,0,0,.265.044.274.274,0,0,0,.2-.28A.215.215,0,0,0,552.063,88.8Z" fill="#fff" opacity="0.2"/>
          <path d="M547.5,36.749c-.046.008-.1.045-.211.178-.021.026-.061.074,0,.182a.3.3,0,0,0,.279.164.249.249,0,0,0,.19-.2.223.223,0,0,0-.087-.243Z" fill="#fff" opacity="0.2"/>
          <path d="M550.578,37.425l-.128-.033a.368.368,0,0,0-.161-.007c-.15.027-.158.123-.162.163a.247.247,0,0,0,.091.179.184.184,0,0,0,.129.059l.023-.01c.224-.135.257-.2.256-.21-.023-.087-.059-.138-.048-.14Z" fill="#fff" opacity="0.2"/>
          <path d="M565.878,19.966c-.065-.051-.1-.045-.112-.042a.377.377,0,0,0-.238.279.129.129,0,0,0,.077.159l.132.081a.261.261,0,0,0,.178.048h0a.272.272,0,0,0,.191-.2c.014-.06.015-.14-.1-.232Z" fill="#fff" opacity="0.2"/>
          <path d="M569.105,18.735c-.112.02-.131.066-.141.091a.328.328,0,0,0,.039.289l.045.067.141.007c.049-.009.2-.037.159-.264S569.155,18.726,569.105,18.735Z" fill="#fff" opacity="0.2"/>
          <path d="M563.542,93.554l-.116.021.009.055-.013.1a.874.874,0,0,0,.112.306c.112.2.209.177.25.169a.345.345,0,0,0,.251-.221c.025-.087-.024-.184-.144-.29A.456.456,0,0,0,563.542,93.554Z" fill="#fff" opacity="0.2"/>
          <path d="M580.3,100.445a.4.4,0,1,0,.431.325A.354.354,0,0,0,580.3,100.445Z" fill="#fff" opacity="0.2"/>
          <path d="M551.91,31.761l0,.053a1.513,1.513,0,0,0-.333.036l-.027,0a.3.3,0,0,0-.277.411c.031.167.164.4.346.366a.433.433,0,0,0,.128-.048.594.594,0,0,0,.32-.751l-.024-.085C552,31.75,551.951,31.755,551.91,31.761Z" fill="#fff" opacity="0.2"/>
          <path d="M548.748,38.873l-.169.078c-.209.081-.163.311-.144.379a.257.257,0,0,0,.308.209h0l.474,1.091a.039.039,0,0,0,.016,0l-.011-.016-.394-1.107a.458.458,0,0,0,.264-.283.185.185,0,0,0-.037-.211A.358.358,0,0,0,548.748,38.873Z" fill="#fff" opacity="0.2"/>
          <path d="M559.32,86.724a.393.393,0,0,0-.271.21.406.406,0,0,0-.046.277l.062.081.263.473-.377.313a.328.328,0,0,0-.111.262.449.449,0,0,0,.2.352.257.257,0,0,0,.194.026.274.274,0,0,0,.2-.138.421.421,0,0,0,.02-.382l-.167-.388.313-.283a.543.543,0,0,0,.125-.153.671.671,0,0,0,.051-.235.38.38,0,0,0-.128-.314A.391.391,0,0,0,559.32,86.724Z" fill="#fff" opacity="0.2"/>
          <path d="M552.39,34.03c-.02,0-.04.008-.06.014l-.121.075a.593.593,0,0,0-.251.534c.013.088.048.15.188.188l.126.035a.618.618,0,0,0,.276.015h0a.411.411,0,0,0,.359-.377.51.51,0,0,0-.181-.383A.364.364,0,0,0,552.39,34.03Z" fill="#fff" opacity="0.2"/>
          <path d="M545.042,42.426a.19.19,0,0,0-.168.15.4.4,0,0,0,.074.36.22.22,0,0,0,.219.061.216.216,0,0,0,.168-.113l.109-.2-.2-.223A.236.236,0,0,0,545.042,42.426Z" fill="#fff" opacity="0.2"/>
          <path d="M546.385,42.185a.248.248,0,0,0-.18.138l-.133.27.129.092a.4.4,0,0,0,.282.034.371.371,0,0,0,.238-.123l-.028-.159C546.633,42.249,546.524,42.159,546.385,42.185Z" fill="#fff" opacity="0.2"/>
          <path d="M557.178,90.607c-.048.009-.174.032-.137.232s.162.176.21.167.174-.031.138-.231S557.225,90.6,557.178,90.607Z" fill="#fff" opacity="0.2"/>
          <path d="M548.871,43.071a.38.38,0,0,0-.227.158l-.1.123a.243.243,0,0,0-.024.31.522.522,0,0,0,.464.245.247.247,0,0,0,.167-.131l.085-.135a.331.331,0,0,0,.015-.391A.4.4,0,0,0,548.871,43.071Z" fill="#fff" opacity="0.2"/>
          <path d="M563.78,19.729a.466.466,0,0,0-.193-.007.247.247,0,0,0-.233.3.279.279,0,0,0,.332.213.3.3,0,0,0,.133-.062l.1-.079a.218.218,0,0,0,.061-.187C563.967,19.862,563.95,19.771,563.78,19.729Z" fill="#fff" opacity="0.2"/>
          <path d="M600.281,13.774a.466.466,0,0,0-.333.241c-.006.018-.023.066.073.175a.681.681,0,0,0,.166.147l.181.1.17-.241c-.022-.087-.05-.172-.11-.353C600.407,13.779,600.4,13.753,600.281,13.774Z" fill="#fff" opacity="0.2"/>
          <path d="M616.416,95.994c-.05.009-.168.031-.133.224s.153.172.2.163.168-.031.133-.224S616.465,95.985,616.416,95.994Z" fill="#fff" opacity="0.2"/>
          <path d="M600.532,15l-.16.21a.456.456,0,0,0,0,.478.333.333,0,0,0,.594-.136.432.432,0,0,0-.205-.433Z" fill="#fff" opacity="0.2"/>
          <path d="M594.534,15.083a.625.625,0,0,0-.24,0h0a.534.534,0,0,0-.344.252.472.472,0,0,0-.048.37l.067.241.279.059a.67.67,0,0,0,.256,0,.332.332,0,0,0,.264-.174.7.7,0,0,1,.192-.428l-.054.048.123-.285Z" fill="#fff" opacity="0.2"/>
          <path d="M595.454,14.216a.292.292,0,0,0-.266.253l-.091.445.493.047a.38.38,0,0,0-.136-.745Z" fill="#fff" opacity="0.2"/>
          <path d="M610.446,99.745a.237.237,0,0,0-.27-.109c-.049.009-.208.05-.215.2l-.008.139a.326.326,0,0,0,.061.244.413.413,0,0,0,.519-.095.317.317,0,0,0-.028-.246Z" fill="#fff" opacity="0.2"/>
          <path d="M617.676,93.088a.317.317,0,0,0-.224.192.33.33,0,0,0,.019.308l.156.242-.094.271a.183.183,0,0,0,.087.242l.126.05.038,0,.149-.148a.12.12,0,0,0,.016-.134l-.113-.3.2-.259a.224.224,0,0,0,.009-.236A.39.39,0,0,0,617.676,93.088Z" fill="#fff" opacity="0.2"/>
          <path d="M595.685,11.642a.341.341,0,0,0-.239-.062.374.374,0,0,0-.267.277.287.287,0,0,0,.137.317l.167.127a.223.223,0,0,0,.183.06.473.473,0,0,0,.313-.358c.021-.113-.011-.183-.188-.294Z" fill="#fff" opacity="0.2"/>
          <path d="M596.994,17.341a.419.419,0,0,0-.3.193.23.23,0,0,0,.015.22.4.4,0,0,0,.382.162l.14-.157a.371.371,0,0,0-.074-.429Z" fill="#fff" opacity="0.2"/>
          <path d="M618.14,95.384l-.171.1c-.1.058-.092.128-.081.164.025.084.128.1.209.091l.032.015a.4.4,0,0,0,.1,0l.024-.007a.27.27,0,0,0,.018-.2.252.252,0,0,0-.089-.164Z" fill="#fff" opacity="0.2"/>
          <path d="M634.764,53.48a.2.2,0,0,0-.183.15.431.431,0,0,0,.08.384.265.265,0,0,0,.388-.071.481.481,0,0,0-.1-.442A.262.262,0,0,0,634.764,53.48Z" fill="#fff" opacity="0.2"/>
          <path d="M634.723,61.467a.322.322,0,0,0-.233.265.247.247,0,0,0,.14.282.285.285,0,0,0,.2.047.339.339,0,0,0,.2-.157.226.226,0,0,0,0-.273A.324.324,0,0,0,634.723,61.467Z" fill="#fff" opacity="0.2"/>
          <path d="M635.172,58.178c-.092.016-.165.11-.2.256l.032.153a.26.26,0,0,0,.465-.085l-.027-.159A.291.291,0,0,0,635.172,58.178Z" fill="#fff" opacity="0.2"/>
          <path d="M603.765,16.149a.3.3,0,0,0-.226.138.673.673,0,0,0,0,.542c.055.169.363.114.367.114s.31-.059.3-.307a.606.606,0,0,0-.185-.437A.3.3,0,0,0,603.765,16.149Z" fill="#fff" opacity="0.2"/>
          <path d="M634.589,50.061a.76.76,0,1,0,.839.618A.7.7,0,0,0,634.589,50.061Z" fill="#fff" opacity="0.2"/>
          <path d="M607.181,15.95a.325.325,0,0,0-.224.136.38.38,0,0,0,.017.3l.075.167.05.058.011-.017a.393.393,0,0,0,.2.012c.023,0,.22-.045.22-.178V16.28a.379.379,0,0,0-.09-.282A.323.323,0,0,0,607.181,15.95Z" fill="#fff" opacity="0.2"/>
          <path d="M603.733,13.877a.682.682,0,0,0-.244.121.3.3,0,0,0,.065.356.7.7,0,0,0,.272.028.492.492,0,0,0,.2-.106.224.224,0,0,0,.047-.2.221.221,0,0,0-.116-.171A.467.467,0,0,0,603.733,13.877Z" fill="#fff" opacity="0.2"/>
          <path d="M612.477,18.3l-.022-.069a.247.247,0,0,0-.229-.146.16.16,0,0,0-.135.1c-.024.062-.028.167.1.308l.034.024a.252.252,0,0,0,.167.016.7.7,0,0,0,.153-.051.176.176,0,0,0-.031-.123Z" fill="#fff" opacity="0.2"/>
          <path d="M611.4,19.449a.321.321,0,0,0-.178.144c-.115.168-.068.242-.042.281a.525.525,0,0,0,.472.211c.042-.008.091-.017.123-.142C611.83,19.709,611.442,19.441,611.4,19.449Z" fill="#fff" opacity="0.2"/>
          <path d="M604.624,102.94c-.05.008-.183.033-.144.241s.17.185.22.176.184-.034.146-.243S604.674,102.93,604.624,102.94Z" fill="#fff" opacity="0.2"/>
          <path d="M580.8,15.981v0l-.248.077a.445.445,0,0,0-.113.061l-.1.065,0,.105a.188.188,0,0,0,.184.2l.288-.044a.341.341,0,0,0,.082-.095.351.351,0,0,0,.009-.238C580.886,16.024,580.848,15.979,580.8,15.981Z" fill="#fff" opacity="0.2"/>
          <path d="M580.46,12.61a.39.39,0,0,0-.232.185.955.955,0,0,0-.121.206.444.444,0,0,0-.011.5.471.471,0,0,0,.44.189.438.438,0,0,0,.3-.288.722.722,0,0,0,.077-.336.485.485,0,0,0-.177-.369A.354.354,0,0,0,580.46,12.61Z" fill="#fff" opacity="0.2"/>
          <path d="M582.955,13.19a.389.389,0,1,0,.419.317A.345.345,0,0,0,582.955,13.19Z" fill="#fff" opacity="0.2"/>
          <path d="M595.749,101.448c-.119.047-.163.077-.221.255-.015.045-.036.127-.007.161a.307.307,0,0,0,.257.065h0c.065-.012.131-.026.11-.224l-.02-.144-.114-.089Z" fill="#fff" opacity="0.2"/>
          <path d="M584.342,15.554s-.134.056-.134.056a.282.282,0,0,0-.145.324.288.288,0,0,0,.265.252l.13.013a.254.254,0,0,0,.087,0c.1-.018.2-.11.3-.3a.143.143,0,0,0-.012-.178A.512.512,0,0,0,584.342,15.554Z" fill="#fff" opacity="0.2"/>
          <path d="M579.221,15.389l-.13.058a.181.181,0,0,0-.082.209c.009.049.041.161.151.168l.139.008.163-.035.059-.033v-.131a.38.38,0,0,0-.1-.267Z" fill="#fff" opacity="0.2"/>
          <path d="M572.862,14.405c-.078-.065-.12-.057-.141-.053a.506.506,0,0,0-.331.467l-1.157.223a2.114,2.114,0,0,0-.111-.322.37.37,0,0,0-.675.122,2.849,2.849,0,0,0,.043.588c.013.081.042.27.353.274l.191,0,.14-.11c.13-.1.14-.2.1-.4l1.129-.339c0,.012.018.046.105.1l.124.069a.4.4,0,0,0,.264.06.31.31,0,0,0,.234-.227.332.332,0,0,0-.143-.345Z" fill="#fff" opacity="0.2"/>
          <path d="M576.248,16.743c-.072.014-.1.034-.106.1l-1.171-.076a.335.335,0,0,0-.176-.29l-.2-.124a.078.078,0,0,0-.024,0,.39.39,0,0,0-.259.3c-.014.077,0,.112.081.157a.82.82,0,0,0,.478.149c.033-.006.086-.016.105-.122l1.171.064a.249.249,0,0,0,.067.164c.008,0,.028.02.1.007a.174.174,0,0,0,.109-.189C576.387,16.718,576.3,16.734,576.248,16.743Z" fill="#fff" opacity="0.2"/>
          <path d="M577.274,13.739l-1.135.318c-.029-.082-.19-.072-.243-.062a.219.219,0,0,0-.2.194l.057.219c.037.146.122.209.251.185s.186-.112.17-.262l-.03-.253,1.175-.284.133.111c.047-.012.119-.116.1-.165l-.2-.107Z" fill="#fff" opacity="0.2"/>
          <path d="M586.211,16.891l-.05-.01a.8.8,0,0,0-.28,0,.236.236,0,0,0-.152.253c.04.218.184.192.232.183a.981.981,0,0,0,.424-.2A.29.29,0,0,0,586.211,16.891Z" fill="#fff" opacity="0.2"/>
          <path d="M606.894,102.214c-.048.009-.192.035-.153.254s.185.191.232.182.192-.035.152-.253S606.941,102.206,606.894,102.214Z" fill="#fff" opacity="0.2"/>
          <path d="M591.141,13.345l-.021-.078-.1-.006-.07-.015-.126.056a.231.231,0,0,0-.025.312c.067.079.114.078.152.071a.329.329,0,0,0,.218-.173.114.114,0,0,0,0-.12Z" fill="#fff" opacity="0.2"/>
          <path d="M608.758,101.184l-.122.068c-.016.009-.069.034-.052.128a.129.129,0,0,0,.06.1h0a1.06,1.06,0,0,1,.249.034l.016,0a.263.263,0,0,0,.082-.188l-.081-.142Z" fill="#fff" opacity="0.2"/>
          <path d="M591.121,16.8a.276.276,0,0,0-.18-.013l-.273.008-.165-.077a.306.306,0,0,0-.172.236.231.231,0,0,0,.083.262.893.893,0,0,0,.5.184A.415.415,0,0,0,591,17.39a.384.384,0,0,0,.269-.188.276.276,0,0,0-.006-.256C591.248,16.908,591.232,16.888,591.121,16.8Z" fill="#fff" opacity="0.2"/>
          <path d="M589.665,14.9a.365.365,0,0,0-.242-.055.28.28,0,0,0-.21.2.3.3,0,0,0,.133.313l.12.1c.066.056.1.05.117.047a.479.479,0,0,0,.3-.363.132.132,0,0,0-.08-.167Z" fill="#fff" opacity="0.2"/>
          <path d="M587.97,13.12l-.065-.024a.708.708,0,0,0,.056.314.251.251,0,0,0,.169.016.259.259,0,0,0,.151-.073c.025-.036.033-.144-.066-.311Z" fill="#fff" opacity="0.2"/>
          <path d="M571.491,16.652l-.172-.014-.029.035a.45.45,0,0,0,.021.426c.045.077.069.073.1.068l.105-.032c.171-.054.257-.152.243-.274C571.75,16.817,571.716,16.669,571.491,16.652Z" fill="#fff" opacity="0.2"/>
          <path d="M593.151,16.584l.09.091a.139.139,0,0,0,.12.054c.037-.007.07-.04.107-.123l.039-.12-.017-.175h-.205C593.225,16.322,593.161,16.389,593.151,16.584Z" fill="#fff" opacity="0.2"/>
        </g>
      </g>
      <g>
        <path d="M312.383,347.4c26.9-22.5,77.517-35.273,144.256-55.141,4.691,9.715,16.807,27.168,17.261,29.762C450.146,371.542,289.648,366.416,312.383,347.4Z" fill="#2e364d"/>
        <path d="M344.146,342.946s53.9-10.031,117.276-34.93c4.691,9.715-10.367,53.192-9.913,55.786C451.693,368.648,318.564,347.894,344.146,342.946Z" fill="#231f20" opacity="0.17" style="mix-blend-mode: overlay"/>
        <path d="M324.762,341.533s98.288,7.4,161.516,9.887c4.691,9.714,8.335,20.456,8.789,23.05.184,4.846-50.559,39.848-52.559,47.722-28.058,1-96.949-12.342-130-35.148C299.809,378.281,299.18,346.481,324.762,341.533Z" fill="#2e364d"/>
        <path d="M442.508,422.192c-28.058,1-96.949-12.342-130-35.148-4.762-3.286-7.827-9.812-8.449-16.946C340,396.781,318.121,386.967,442.508,422.192Z" fill="#231f20" opacity="0.17" style="mix-blend-mode: overlay"/>
        <path d="M428.747,313.823c8.22,6.986,49.4,18.762,51.8,19.855,4.643,1.4,56.7-151.7,43.116-148.219C502.932,190.768,464.786,254.24,428.747,313.823Z" fill="#2e364d"/>
        <path d="M428.747,313.823c8.22,6.986,49.4,18.762,51.8,19.855,4.643,1.4,40.9-127.253,31.085-117.237C499.653,228.668,484.132,274.519,428.747,313.823Z" fill="#231f20" opacity="0.17" style="mix-blend-mode: overlay"/>
        <path d="M509.65,198.609s-17.595,96.984-31.118,158.8c8.22,6.987,17.7,13.219,20.094,14.312,4.643,1.4,45.321-29.61,53.445-29.562,8.031-26.9,18.454-106.212,4.709-143.942C551.5,183.718,520.883,175.1,509.65,198.609Z" fill="#2e364d"/>
        <path d="M552.071,342.157c8.031-26.9,18.454-106.212,4.709-143.942-2.3-6.321-9.423-11.525-17.652-13.435C549.551,196.181,566.373,231.988,552.071,342.157Z" fill="#231f20" opacity="0.17" style="mix-blend-mode: overlay"/>
        <g>
          <path d="M413.928,386.9a3.727,3.727,0,0,1-5.23-.67l-47.5-61.488a4.085,4.085,0,0,1,.735-5.728l109.988-85.024a4.081,4.081,0,0,1,5.727.733l47.5,61.488a3.73,3.73,0,0,1-.671,5.232Z" fill="#f6f6f6"/>
          <path d="M413.1,385.82a2.37,2.37,0,0,1-3.322-.425l-47.5-61.488a2.727,2.727,0,0,1,.49-3.819l109.988-85.024a2.724,2.724,0,0,1,3.818.489l47.5,61.488a2.371,2.371,0,0,1-.427,3.323Z" fill="none" stroke="#ededed" stroke-miterlimit="10" stroke-width="0.262"/>
          <path d="M474.112,233.147a4.059,4.059,0,0,0-2.191.84L361.933,319.011a4.067,4.067,0,0,0-1.365,1.908,4.682,4.682,0,0,0,4.221-.676l107.605-83.181A4.694,4.694,0,0,0,474.112,233.147Z" fill="#1d1d1b" opacity="0.1"/>
          <path d="M457.687,250.494,379.417,311a1.36,1.36,0,0,1-1.909-.244l-1.83-2.369L456.1,246.215l1.831,2.369A1.363,1.363,0,0,1,457.687,250.494Z" fill="#706f6f"/>
          <g>
            <path d="M425.585,285.922h6.021a.939.939,0,0,1,.939.939v5.645a.939.939,0,0,1-.939.939h-6.02a.94.94,0,0,1-.94-.94v-5.644A.939.939,0,0,1,425.585,285.922Z" transform="matrix(0.791, -0.612, 0.612, 0.791, -87.666, 322.622)" fill="#333"/>
            <rect x="410.481" y="296.872" width="7.898" height="7.523" rx="0.939" transform="translate(-97.321 316.246) rotate(-37.705)" fill="#333"/>
            <path d="M418.5,291.4h6.02a.94.94,0,0,1,.94.94v5.644a.939.939,0,0,1-.939.939H418.5a.94.94,0,0,1-.94-.94v-5.644a.939.939,0,0,1,.939-.939Z" transform="translate(-92.493 319.434) rotate(-37.705)" fill="#333"/>
            <path d="M397.255,307.822h6.02a.94.94,0,0,1,.94.94v5.644a.939.939,0,0,1-.939.939h-6.019a.94.94,0,0,1-.94-.94v-5.645a.939.939,0,0,1,.939-.939Z" transform="translate(-106.976 309.849) rotate(-37.703)" fill="#333"/>
            <rect x="403.398" y="302.347" width="7.898" height="7.523" rx="0.939" transform="translate(-102.149 313.057) rotate(-37.705)" fill="#333"/>
            <path d="M432.668,280.447h6.02a.94.94,0,0,1,.94.94v5.644a.939.939,0,0,1-.939.939h-6.02a.94.94,0,0,1-.94-.94v-5.644A.939.939,0,0,1,432.668,280.447Z" transform="translate(-82.838 325.811) rotate(-37.705)" fill="#333"/>
            <path d="M446.833,269.5h6.021a.939.939,0,0,1,.939.939v5.645a.939.939,0,0,1-.939.939h-6.02a.94.94,0,0,1-.94-.94v-5.644A.939.939,0,0,1,446.833,269.5Z" transform="translate(-73.18 332.209) rotate(-37.707)" fill="#333"/>
            <path d="M453.917,264.021h6.02a.939.939,0,0,1,.939.939V270.6a.939.939,0,0,1-.939.939h-6.02a.939.939,0,0,1-.939-.939v-5.644a.94.94,0,0,1,.94-.94Z" transform="translate(-68.381 335.175) rotate(-37.683)" fill="#333"/>
            <path d="M439.75,274.972h6.02a.94.94,0,0,1,.94.94v5.644a.939.939,0,0,1-.939.939h-6.021a.939.939,0,0,1-.939-.939v-5.644a.939.939,0,0,1,.939-.939Z" transform="translate(-78.01 328.999) rotate(-37.705)" fill="#333"/>
            <path d="M442.79,305.143h6.02a.94.94,0,0,1,.94.94v5.644a.939.939,0,0,1-.939.939h-6.02a.939.939,0,0,1-.939-.939v-5.645a.939.939,0,0,1,.939-.939Z" transform="translate(-95.828 337.159) rotate(-37.705)" fill="#333"/>
            <path d="M428.625,316.093h6.02a.94.94,0,0,1,.94.94v5.644a.939.939,0,0,1-.939.939h-6.02a.94.94,0,0,1-.94-.94v-5.644A.939.939,0,0,1,428.625,316.093Z" transform="translate(-105.484 330.782) rotate(-37.705)" fill="#333"/>
            <path d="M435.707,310.618h6.02a.94.94,0,0,1,.94.94V317.2a.939.939,0,0,1-.939.939h-6.02a.94.94,0,0,1-.94-.94v-5.644A.939.939,0,0,1,435.707,310.618Z" transform="translate(-100.656 333.971) rotate(-37.705)" fill="#333"/>
            <path d="M421.542,321.569h6.02a.94.94,0,0,1,.94.94v5.645a.939.939,0,0,1-.939.939h-6.021a.94.94,0,0,1-.94-.94v-5.644A.939.939,0,0,1,421.542,321.569Z" transform="translate(-110.311 327.594) rotate(-37.705)" fill="#333"/>
            <path d="M449.873,299.668h6.02a.94.94,0,0,1,.94.94v5.644a.939.939,0,0,1-.939.939h-6.02a.939.939,0,0,1-.939-.939v-5.645A.939.939,0,0,1,449.873,299.668Z" transform="translate(-91.001 340.347) rotate(-37.705)" fill="#333"/>
            <path d="M461.372,269.1h6.02a.939.939,0,0,1,.939.939v5.645a.939.939,0,0,1-.939.939h-6.02a.94.94,0,0,1-.94-.94v-5.645A.939.939,0,0,1,461.372,269.1Z" transform="translate(-69.902 340.996) rotate(-37.705)" fill="#333"/>
            <path d="M399.478,327.784h6.02a.939.939,0,0,1,.939.939v5.645a.939.939,0,0,1-.939.939h-6.02a.939.939,0,0,1-.939-.939v-5.645A.94.94,0,0,1,399.478,327.784Z" transform="translate(-118.714 315.198) rotate(-37.683)" fill="#333"/>
            <rect x="389.232" y="313.298" width="7.899" height="7.523" rx="0.939" transform="translate(-111.804 306.681) rotate(-37.705)" fill="#333"/>
            <rect x="389.606" y="323.849" width="7.899" height="7.523" rx="0.939" transform="translate(-118.179 309.113) rotate(-37.705)" fill="#333"/>
            <path d="M407.377,332.519h6.02a.939.939,0,0,1,.939.939V339.1a.94.94,0,0,1-.94.94h-6.02a.939.939,0,0,1-.939-.939v-5.645a.94.94,0,0,1,.94-.94Z" transform="translate(-119.96 320.991) rotate(-37.681)" fill="#333"/>
            <path d="M414.459,327.043h6.02a.94.94,0,0,1,.94.94v5.644a.939.939,0,0,1-.939.939h-6.02a.939.939,0,0,1-.939-.939v-5.644a.939.939,0,0,1,.939-.939Z" transform="translate(-115.139 324.405) rotate(-37.705)" fill="#333"/>
            <path d="M406.561,322.309h6.02a.939.939,0,0,1,.939.939v5.645a.94.94,0,0,1-.94.94h-6.02a.939.939,0,0,1-.939-.939v-5.644A.94.94,0,0,1,406.561,322.309Z" transform="translate(-113.89 318.385) rotate(-37.683)" fill="#333"/>
            <path d="M425.959,296.473h6.02a.939.939,0,0,1,.939.939v5.645a.939.939,0,0,1-.939.939h-6.02a.94.94,0,0,1-.94-.94v-5.644a.939.939,0,0,1,.939-.939Z" transform="translate(-94.041 325.055) rotate(-37.705)" fill="#333"/>
            <path d="M433.041,291h6.021a.94.94,0,0,1,.94.94v5.644a.939.939,0,0,1-.939.939h-6.02a.94.94,0,0,1-.94-.94v-5.644A.939.939,0,0,1,433.041,291Z" transform="translate(-89.213 328.243) rotate(-37.705)" fill="#333"/>
            <path d="M418.876,301.948H424.9a.939.939,0,0,1,.939.939v5.645a.939.939,0,0,1-.939.939h-6.021a.94.94,0,0,1-.94-.94v-5.644A.939.939,0,0,1,418.876,301.948Z" transform="translate(-98.868 321.866) rotate(-37.705)" fill="#333"/>
            <rect x="439.185" y="285.523" width="7.899" height="7.523" rx="0.939" transform="matrix(0.791, -0.612, 0.612, 0.791, -84.385, 331.431)" fill="#333"/>
            <path d="M411.794,307.423h6.02a.94.94,0,0,1,.94.94v5.645a.939.939,0,0,1-.939.939h-6.021a.939.939,0,0,1-.939-.939v-5.645a.939.939,0,0,1,.939-.939Z" transform="translate(-103.696 318.678) rotate(-37.705)" fill="#333"/>
            <path d="M454.289,274.573h6.021a.94.94,0,0,1,.94.94v5.645a.939.939,0,0,1-.939.939h-6.02a.94.94,0,0,1-.94-.94v-5.644a.939.939,0,0,1,.939-.939Z" transform="translate(-74.73 337.808) rotate(-37.705)" fill="#333"/>
            <path d="M404.71,312.9h6.02a.94.94,0,0,1,.94.94v5.644a.939.939,0,0,1-.939.939h-6.02a.939.939,0,0,1-.939-.939v-5.645a.939.939,0,0,1,.939-.939Z" transform="translate(-108.524 315.489) rotate(-37.705)" fill="#333"/>
            <path d="M463.156,249.776h4.635a.94.94,0,0,1,.94.94v2.815a.939.939,0,0,1-.939.939h-4.636a.939.939,0,0,1-.939-.939v-2.815A.939.939,0,0,1,463.156,249.776Z" transform="translate(-56.992 337.333) rotate(-37.705)" fill="#333"/>
            <path d="M457.136,254.43h4.635a.939.939,0,0,1,.939.939v2.815a.939.939,0,0,1-.939.939h-4.635a.94.94,0,0,1-.94-.94v-2.815a.939.939,0,0,1,.939-.939Z" transform="translate(-61.096 334.623) rotate(-37.705)" fill="#333"/>
            <path d="M447.208,280.048h6.019a.94.94,0,0,1,.94.94v5.644a.939.939,0,0,1-.939.939h-6.02a.94.94,0,0,1-.94-.94v-5.644A.939.939,0,0,1,447.208,280.048Z" transform="translate(-79.56 334.599) rotate(-37.703)" fill="#333"/>
            <path d="M413.643,316.834h6.019a.94.94,0,0,1,.94.94v5.644a.939.939,0,0,1-.939.939h-6.02a.94.94,0,0,1-.94-.94v-5.644a.939.939,0,0,1,.939-.939Z" transform="translate(-109.065 321.774) rotate(-37.705)" fill="#333"/>
            <path d="M449.056,289.459h6.02a.94.94,0,0,1,.94.94v5.644a.939.939,0,0,1-.939.939h-6.02a.94.94,0,0,1-.94-.94V290.4A.939.939,0,0,1,449.056,289.459Z" transform="translate(-84.927 337.716) rotate(-37.705)" fill="#333"/>
            <path d="M441.973,294.934h6.021a.94.94,0,0,1,.94.94v5.645a.939.939,0,0,1-.939.939h-6.02a.94.94,0,0,1-.94-.94v-5.645A.939.939,0,0,1,441.973,294.934Z" transform="translate(-89.756 334.506) rotate(-37.703)" fill="#333"/>
            <path d="M456.14,283.984h6.02a.939.939,0,0,1,.939.939v5.645a.939.939,0,0,1-.939.939h-6.02a.94.94,0,0,1-.94-.94v-5.644A.939.939,0,0,1,456.14,283.984Z" transform="translate(-80.1 340.905) rotate(-37.705)" fill="#333"/>
            <path d="M434.891,300.409h6.02a.94.94,0,0,1,.94.94v5.644a.939.939,0,0,1-.939.939h-6.02a.94.94,0,0,1-.94-.94v-5.644a.939.939,0,0,1,.939-.939Z" transform="translate(-94.581 331.361) rotate(-37.707)" fill="#333"/>
            <path d="M463.222,278.509h6.02a.94.94,0,0,1,.94.94v5.644a.939.939,0,0,1-.939.939h-6.019a.94.94,0,0,1-.94-.94v-5.644a.939.939,0,0,1,.939-.939Z" transform="translate(-75.272 344.093) rotate(-37.705)" fill="#333"/>
            <path d="M427.809,305.884h6.019a.939.939,0,0,1,.939.939v5.645a.939.939,0,0,1-.939.939h-6.019a.94.94,0,0,1-.94-.94v-5.644a.939.939,0,0,1,.939-.939Z" transform="translate(-99.41 328.151) rotate(-37.705)" fill="#333"/>
            <path d="M397.628,318.374h6.02a.94.94,0,0,1,.94.94v5.644a.939.939,0,0,1-.939.939h-6.021a.939.939,0,0,1-.939-.939v-5.644a.939.939,0,0,1,.939-.939Z" transform="translate(-113.351 312.301) rotate(-37.705)" fill="#333"/>
            <path d="M456.956,294.193h6.02a.94.94,0,0,1,.94.94v5.645a.939.939,0,0,1-.939.939h-6.02a.939.939,0,0,1-.939-.939v-5.645a.939.939,0,0,1,.939-.939Z" transform="translate(-86.173 343.536) rotate(-37.705)" fill="#333"/>
            <path d="M420.726,311.359h6.02a.94.94,0,0,1,.94.94v5.645a.939.939,0,0,1-.939.939h-6.02a.94.94,0,0,1-.94-.94V312.3A.939.939,0,0,1,420.726,311.359Z" transform="translate(-104.238 324.963) rotate(-37.705)" fill="#333"/>
            <path d="M477.213,293.606H485.1a.94.94,0,0,1,.94.94v1.883a.939.939,0,0,1-.939.939h-7.885a.94.94,0,0,1-.94-.94v-1.883a.939.939,0,0,1,.939-.939Z" transform="translate(-80.239 355.98) rotate(-37.705)" fill="#333"/>
            <path d="M464.038,288.718h6.02a.94.94,0,0,1,.94.94V295.3a.938.938,0,0,1-.938.938h-6.02a.94.94,0,0,1-.94-.94v-5.644A.939.939,0,0,1,464.038,288.718Z" transform="translate(-81.347 346.702) rotate(-37.703)" fill="#333"/>
            <path d="M459.083,305.91a.938.938,0,0,0-1.317-.169l-33.094,25.582a.941.941,0,0,0-.169,1.318l3.787,4.9a.938.938,0,0,0,1.317.169L462.7,312.13a.94.94,0,0,0,.17-1.318Z" fill="#333"/>
            <path d="M461.924,301.265h6.021a.939.939,0,0,1,.939.939V308.4a.939.939,0,0,1-.939.939h-6.02a.94.94,0,0,1-.94-.94V302.2A.939.939,0,0,1,461.924,301.265Z" transform="translate(-89.629 348.109) rotate(-37.705)" fill="#333"/>
            <rect x="468.068" y="295.79" width="7.899" height="8.073" rx="0.939" transform="translate(-84.801 351.297) rotate(-37.705)" fill="#333"/>
            <rect x="484.832" y="286.99" width="9.763" height="3.762" rx="0.939" transform="translate(-74.405 359.832) rotate(-37.705)" fill="#333"/>
            <path d="M482.982,283.63h7.884a.94.94,0,0,1,.94.94v1.379a.939.939,0,0,1-.939.939h-7.885a.939.939,0,0,1-.939-.939V284.57a.939.939,0,0,1,.939-.939Z" transform="translate(-72.779 357.372) rotate(-37.705)" fill="#333"/>
            <path d="M412.345,339.591h6.02a.94.94,0,0,1,.94.94v6.194a.939.939,0,0,1-.939.939h-6.02a.94.94,0,0,1-.94-.94V340.53A.939.939,0,0,1,412.345,339.591Z" transform="translate(-123.422 325.79) rotate(-37.705)" fill="#333"/>
            <path d="M394.6,353.24l13.387-10.349a.938.938,0,0,0,.169-1.317l-3.45-4.468a.939.939,0,0,0-1.318-.168l-12.644,9.774a.94.94,0,0,0-.169,1.318l4.025,5.21Z" fill="#333"/>
            <path d="M389.355,346.453l10.731-8.3a.94.94,0,0,0,.169-1.318l-3.451-4.467a.938.938,0,0,0-1.317-.168l-9.988,7.72a.941.941,0,0,0-.169,1.318l4.025,5.211Z" fill="#333"/>
            <rect x="404.324" y="345.066" width="7.898" height="8.073" rx="0.939" transform="translate(-128.241 322.412) rotate(-37.685)" fill="#333"/>
            <rect x="396.838" y="350.679" width="8.348" height="8.073" rx="0.939" transform="translate(-133.199 319.333) rotate(-37.705)" fill="#333"/>
            <path d="M469.135,245h5.034a.939.939,0,0,1,.939.939v2.815a.94.94,0,0,1-.94.94h-5.034a.939.939,0,0,1-.939-.939V245.94a.94.94,0,0,1,.94-.94Z" transform="translate(-52.813 339.936) rotate(-37.686)" fill="#333"/>
            <path d="M384.112,339.665l7.042-5.444a.939.939,0,0,0,.169-1.317l-3.45-4.467a.94.94,0,0,0-1.318-.169l-6.3,4.869a.941.941,0,0,0-.169,1.318l4.025,5.21Z" fill="#333"/>
            <path d="M372.4,319.739h5.144a.939.939,0,0,1,.939.939v2.815a.94.94,0,0,1-.94.94H372.4a.939.939,0,0,1-.939-.939v-2.815a.939.939,0,0,1,.939-.939Z" transform="translate(-118.669 296.338) rotate(-37.676)" fill="#333"/>
            <path d="M494.45,280.726h6.734a.939.939,0,0,1,.939.939v1.883a.94.94,0,0,1-.94.94h-6.734a.939.939,0,0,1-.939-.939v-1.883a.94.94,0,0,1,.94-.94Z" transform="translate(-68.915 363.254) rotate(-37.682)" fill="#333"/>
            <path d="M476.465,247.924,466.411,255.7a.941.941,0,0,0-.169,1.318l3.45,4.467a.94.94,0,0,0,1.318.169l9.311-7.2a.94.94,0,0,0,.169-1.318l-4.025-5.21Z" fill="#333"/>
            <path d="M476.533,280.393a.939.939,0,0,0-.169,1.317l3.45,4.468a.939.939,0,0,0,1.318.168l14.918-11.532a.939.939,0,0,0,.169-1.318l-3.5-4.534a.854.854,0,0,0-1.2-.153Z" fill="#333"/>
            <path d="M486.951,261.5l-11.234,8.685a.938.938,0,0,0-.169,1.317l3.45,4.468a.939.939,0,0,0,1.318.168l10.491-8.11a.94.94,0,0,0,.17-1.318l-4.025-5.21Z" fill="#333"/>
            <path d="M481.708,254.711l-7.84,6.061a.94.94,0,0,0-.169,1.318l3.45,4.468a.938.938,0,0,0,1.317.169l7.1-5.487a.941.941,0,0,0,.17-1.318l-4.026-5.211Z" fill="#333"/>
            <path d="M419.428,334.116h6.02a.94.94,0,0,1,.94.94v6.194a.939.939,0,0,1-.939.939h-6.02a.939.939,0,0,1-.939-.939v-6.194a.939.939,0,0,1,.939-.939Z" transform="translate(-118.594 328.957) rotate(-37.703)" fill="#333"/>
            <path d="M461,258.546h6.02a.939.939,0,0,1,.939.939v5.644a.94.94,0,0,1-.94.94H461a.939.939,0,0,1-.939-.939v-5.644A.939.939,0,0,1,461,258.546Z" transform="translate(-63.563 338.317) rotate(-37.678)" fill="#333"/>
            <path d="M445.095,263.737h4.636a.939.939,0,0,1,.939.939v2.816a.939.939,0,0,1-.939.939H445.1a.94.94,0,0,1-.94-.94v-2.815a.939.939,0,0,1,.939-.939Z" transform="translate(-69.303 329.203) rotate(-37.705)" fill="#333"/>
            <path d="M427.034,277.7h4.635a.94.94,0,0,1,.94.94v2.815a.939.939,0,0,1-.939.939h-4.635a.94.94,0,0,1-.94-.94v-2.815a.939.939,0,0,1,.939-.939Z" transform="translate(-81.616 321.046) rotate(-37.702)" fill="#333"/>
            <path d="M433.054,273.045h4.636a.94.94,0,0,1,.94.94V276.8a.939.939,0,0,1-.939.939h-4.636a.94.94,0,0,1-.94-.94v-2.815A.939.939,0,0,1,433.054,273.045Z" transform="translate(-77.507 323.809) rotate(-37.708)" fill="#333"/>
            <rect x="438.136" y="268.391" width="6.514" height="4.694" rx="0.939" transform="translate(-73.406 326.493) rotate(-37.705)" fill="#333"/>
            <path d="M451.115,259.083h4.636a.939.939,0,0,1,.939.939v2.816a.939.939,0,0,1-.939.939h-4.636a.94.94,0,0,1-.94-.94v-2.815a.939.939,0,0,1,.939-.939Z" transform="translate(-65.203 331.886) rotate(-37.702)" fill="#333"/>
            <path d="M471.122,283.243h6.02a.939.939,0,0,1,.939.939v5.644a.94.94,0,0,1-.94.94h-6.02a.939.939,0,0,1-.939-.939v-5.644a.94.94,0,0,1,.94-.94Z" transform="translate(-76.539 349.725) rotate(-37.686)" fill="#333"/>
            <path d="M468.456,263.622h6.02a.94.94,0,0,1,.94.94v5.645a.939.939,0,0,1-.939.939h-6.021a.939.939,0,0,1-.939-.939v-5.645a.939.939,0,0,1,.939-.939Z" transform="translate(-65.075 344.185) rotate(-37.705)" fill="#333"/>
            <rect x="469.366" y="273.033" width="7.898" height="7.523" rx="0.939" transform="translate(-70.441 347.303) rotate(-37.707)" fill="#333"/>
            <path d="M421.014,282.353h4.636a.94.94,0,0,1,.94.94v2.816a.939.939,0,0,1-.939.939h-4.636a.94.94,0,0,1-.94-.94v-2.815a.939.939,0,0,1,.939-.939Z" transform="translate(-85.717 318.363) rotate(-37.705)" fill="#333"/>
            <path d="M384.893,310.276h4.635a.94.94,0,0,1,.94.94v2.815a.939.939,0,0,1-.939.939h-4.635a.939.939,0,0,1-.939-.939v-2.816a.939.939,0,0,1,.939-.939Z" transform="translate(-110.338 302.102) rotate(-37.705)" fill="#333"/>
            <path d="M378.872,314.93h4.636a.94.94,0,0,1,.94.94v2.815a.939.939,0,0,1-.939.939h-4.635a.94.94,0,0,1-.94-.94v-2.815a.939.939,0,0,1,.939-.939Z" transform="translate(-114.442 299.392) rotate(-37.705)" fill="#333"/>
            <path d="M390.912,305.622h4.636a.939.939,0,0,1,.939.939v2.816a.939.939,0,0,1-.939.939h-4.636a.94.94,0,0,1-.94-.94v-2.815A.939.939,0,0,1,390.912,305.622Z" transform="translate(-106.235 304.812) rotate(-37.705)" fill="#333"/>
            <path d="M383.089,318.772h6.02a.94.94,0,0,1,.94.94v5.644a.939.939,0,0,1-.939.939h-6.02a.94.94,0,0,1-.94-.94v-5.644a.939.939,0,0,1,.939-.939Z" transform="translate(-116.632 303.512) rotate(-37.707)" fill="#333"/>
            <path d="M414.994,287.007h4.636a.939.939,0,0,1,.939.939v2.816a.939.939,0,0,1-.939.939h-4.636a.94.94,0,0,1-.94-.94v-2.815a.939.939,0,0,1,.939-.939Z" transform="translate(-89.82 315.653) rotate(-37.705)" fill="#333"/>
            <path d="M378.869,332.878h0l4.828-3.732a.939.939,0,0,0,.169-1.318l-3.45-4.467a.939.939,0,0,0-1.318-.169l-4.085,3.158a.939.939,0,0,0-.169,1.318Z" fill="#333"/>
            <path d="M396.933,300.968h4.635a.94.94,0,0,1,.94.94v2.815a.939.939,0,0,1-.939.939h-4.635a.939.939,0,0,1-.939-.939v-2.816a.939.939,0,0,1,.939-.939Z" transform="translate(-102.131 307.522) rotate(-37.705)" fill="#333"/>
            <path d="M408.973,291.661h4.635a.94.94,0,0,1,.94.94v2.815a.939.939,0,0,1-.939.939h-4.635a.94.94,0,0,1-.94-.94V292.6A.939.939,0,0,1,408.973,291.661Z" transform="translate(-93.924 312.942) rotate(-37.705)" fill="#333"/>
            <path d="M402.953,296.315h4.635a.94.94,0,0,1,.94.94v2.815a.939.939,0,0,1-.939.939h-4.635a.939.939,0,0,1-.939-.939v-2.815a.939.939,0,0,1,.939-.939Z" transform="translate(-98.028 310.206) rotate(-37.702)" fill="#333"/>
          </g>
          <path d="M444.915,324.011H475.6a1.491,1.491,0,0,1,1.491,1.491v14.17a1.492,1.492,0,0,1-1.492,1.492H444.915a1.491,1.491,0,0,1-1.491-1.491V325.5A1.492,1.492,0,0,1,444.915,324.011Z" transform="translate(-107.294 350.946) rotate(-37.705)" fill="#ededed"/>
          <path d="M448.838,345.341l2.432,3.148a1.491,1.491,0,0,0,2.092.268l24.274-18.764a1.493,1.493,0,0,0,.268-2.093l-2.431-3.148Z" fill="#dadada"/>
          <g>
            <path d="M433.963,167.654,307.341,265.536a3.731,3.731,0,0,0-.671,5.232l.656.85L439.85,169.173l-.656-.85A3.729,3.729,0,0,0,433.963,167.654Z" fill="#333"/>
            <path d="M308,266.385a3.732,3.732,0,0,0-.671,5.233l49.287,48.115a4.831,4.831,0,0,0,6.152.355l109.988-85.025a4.837,4.837,0,0,0,1.21-6.044L439.85,169.173a3.728,3.728,0,0,0-5.231-.67Z" fill="#c6c6c6"/>
            <path d="M365.688,315.181,318.3,266.591l-.024-.049a.828.828,0,0,1,.238-1.012l32.842-25.388,22.729-17.57,57.049-44.1a.828.828,0,0,1,1.038.026l.042.036,35.052,58.123Z" fill="#1d1d1b"/>
            <path d="M365.72,314.727l-47.134-48.334a.485.485,0,0,1,.14-.593l112.62-87.06a.484.484,0,0,1,.609.015l34.867,57.817Z" fill="#3f3f3f"/>
            <path d="M365.72,314.727l-47.134-48.334a.485.485,0,0,1,.14-.593l40.823-31.558,41.735,52.993Z" fill="#333"/>
            <polygon points="342.891 291.317 381.185 261.714 378.688 258.544 340.055 288.409 342.891 291.317" fill="#fff"/>
            <path d="M434.806,183.482l-2.851-4.727a.484.484,0,0,0-.609-.015L318.726,265.8a.485.485,0,0,0-.14.593l3.854,3.951Z" fill="#dadada"/>
            <g>
              <rect x="356.379" y="277.684" width="13.402" height="1.153" transform="translate(-94.361 280.168) rotate(-37.705)" fill="#c6c6c6"/>
              <rect x="353.268" y="274.259" width="13.402" height="1.153" transform="translate(-92.916 277.55) rotate(-37.705)" fill="#333"/>
              <rect x="349.393" y="268.594" width="20.729" height="1.153" transform="translate(-89.495 276.238) rotate(-37.705)" fill="#c6c6c6"/>
              <rect x="347.048" y="267.41" width="13.402" height="1.153" transform="translate(-90.026 272.315) rotate(-37.705)" fill="#c6c6c6"/>
              <rect x="342.407" y="259.504" width="28.055" height="1.153" transform="translate(-84.63 272.307) rotate(-37.705)" fill="#c6c6c6"/>
              <rect x="339.297" y="256.079" width="28.055" height="1.153" transform="translate(-83.185 269.69) rotate(-37.705)" fill="#c6c6c6"/>
              <polygon points="344.842 258.842 334.238 267.039 332.685 265.324 343.289 257.127 344.842 258.842" fill="#c6c6c6"/>
              <polygon points="334.409 259.043 323.805 267.24 322.253 265.525 332.856 257.329 334.409 259.043" fill="#fff"/>
            </g>
            <g>
              <rect x="407.848" y="257.686" width="18.757" height="1.153" transform="translate(-70.823 309.108) rotate(-37.705)" fill="#fff"/>
              <rect x="405.793" y="256.278" width="11.43" height="1.153" transform="translate(-71.156 305.316) rotate(-37.705)" fill="#c6c6c6"/>
              <rect x="403.737" y="254.869" width="4.104" height="1.153" transform="translate(-71.488 301.524) rotate(-37.705)" fill="#fff"/>
              <rect x="400.917" y="251.22" width="4.104" height="1.153" transform="translate(-69.846 299.037) rotate(-37.705)" fill="#f7cb4e"/>
              <rect x="397.331" y="245.331" width="11.43" height="1.153" transform="translate(-66.228 297.855) rotate(-37.705)" fill="#fff"/>
              <rect x="406.104" y="232.721" width="11.431" height="1.153" transform="translate(-56.683 300.587) rotate(-37.705)" fill="#c6c6c6"/>
              <rect x="397.486" y="233.553" width="11.431" height="1.153" transform="translate(-58.992 295.49) rotate(-37.705)" fill="#c6c6c6"/>
              <rect x="388.87" y="234.385" width="11.43" height="1.153" transform="translate(-61.3 290.394) rotate(-37.705)" fill="#fff"/>
              <rect x="386.049" y="230.736" width="11.43" height="1.153" transform="translate(-59.658 287.907) rotate(-37.705)" fill="#f7cb4e"/>
              <rect x="377.432" y="231.568" width="11.431" height="1.153" transform="translate(-61.966 282.811) rotate(-37.705)" fill="#fff"/>
              <polygon points="444.614 237.727 425.679 252.364 425.064 251.568 444.192 236.782 444.614 237.727" fill="#c6c6c6"/>
              <rect x="415.76" y="249.383" width="9.524" height="1.006" transform="translate(-65.011 309.374) rotate(-37.705)" fill="#f7cb4e"/>
              <polygon points="438.973 230.429 408.445 254.028 407.83 253.233 438.551 229.484 438.973 230.429" fill="#c6c6c6"/>
              <rect x="402.027" y="239.845" width="31.504" height="1.005" transform="translate(-59.751 305.705) rotate(-37.705)" fill="#c6c6c6"/>
              <polygon points="433.332 223.132 408.6 242.25 407.985 241.454 432.91 222.187 433.332 223.132" fill="#c6c6c6"/>
              <polygon points="436.308 215.002 417.373 229.639 416.758 228.844 435.886 214.057 436.308 215.002" fill="#c6c6c6"/>
              <rect x="407.454" y="226.659" width="9.525" height="1.006" transform="translate(-52.848 299.548) rotate(-37.705)" fill="#f7cb4e"/>
              <rect x="398.072" y="225.25" width="16.851" height="1.006" transform="translate(-53.181 295.756) rotate(-37.705)" fill="#c6c6c6"/>
              <polygon points="427.846 204.056 397.318 227.655 396.703 226.859 427.424 203.111 427.846 204.056" fill="#c6c6c6"/>
              <polygon points="419.229 204.888 388.701 228.487 388.086 227.692 418.807 203.943 419.229 204.888" fill="#c6c6c6"/>
            </g>
            <g>
              <rect x="396.085" y="273.186" width="2.181" height="1.153" transform="translate(-84.49 300.081) rotate(-37.705)" fill="#c6c6c6"/>
              <rect x="393.264" y="269.538" width="2.181" height="1.153" transform="translate(-82.848 297.594) rotate(-37.705)" fill="#c6c6c6"/>
              <rect x="390.443" y="265.889" width="2.181" height="1.153" transform="translate(-81.205 295.107) rotate(-37.705)" fill="#c6c6c6"/>
              <rect x="387.623" y="262.24" width="2.181" height="1.153" transform="translate(-79.563 292.62) rotate(-37.705)" fill="#c6c6c6"/>
              <rect x="384.802" y="258.591" width="2.181" height="1.153" transform="translate(-77.92 290.133) rotate(-37.705)" fill="#c6c6c6"/>
              <rect x="381.982" y="254.943" width="2.181" height="1.153" transform="translate(-76.278 287.646) rotate(-37.705)" fill="#c6c6c6"/>
              <rect x="379.161" y="251.294" width="2.181" height="1.153" transform="translate(-74.635 285.159) rotate(-37.705)" fill="#c6c6c6"/>
              <rect x="376.341" y="247.645" width="2.181" height="1.153" transform="translate(-72.993 282.672) rotate(-37.705)" fill="#c6c6c6"/>
              <rect x="373.52" y="243.996" width="2.181" height="1.153" transform="translate(-71.35 280.185) rotate(-37.705)" fill="#c6c6c6"/>
              <rect x="370.699" y="240.348" width="2.181" height="1.153" transform="translate(-69.707 277.698) rotate(-37.705)" fill="#c6c6c6"/>
            </g>
          </g>
          <path d="M379.081,219.143l52.265-40.4a.484.484,0,0,1,.609.015l34.867,57.817L447.885,251.21Z" fill="#fff" opacity="0.54" style="mix-blend-mode: overlay"/>
        </g>
        <path d="M562.366,287.886l-36.23-2.34a8.117,8.117,0,0,1-5.364-2.513l-16.24-17.119S493.548,254.039,491.3,252.59c-1.414-1.138-3.833,3.119-2.268,5.211,1.062,1.418,8.294,8.348,10.127,12.32C496.476,267.55,487.1,258.28,487.1,258.28L475.12,251.5c-.145-.086-.894.9-1.057.947a.63.63,0,0,0-.385.3,3.15,3.15,0,0,0-.151,2.805l.326.753-5.162-3.084a1.2,1.2,0,0,0-1.58.361h0a4.3,4.3,0,0,0,.7,5.824l10.976,9.1s9.088,10.824,8.891,11.016c-.508.5-11.828-9.31-11.828-9.31l-11.25-7.642a1.329,1.329,0,0,0-1.848.6h0c-.8,1.715-.457,5.1,1.031,6.267l8.319,6.54,11.159,11.185s2.436,3.4,3.826,5.654c.521.845-7.4.5-7.4.5l-6.53-3.23a5.864,5.864,0,0,0-5.693.009h0c-1.29.718-.145,3.859.988,4.806l6.514,5.443a8.261,8.261,0,0,0,2.479,1.425l13.744,4.982a8.259,8.259,0,0,0,2.84.5l12.839-.044a19.207,19.207,0,0,1,9.479,2.465l32.021-2.159Z" fill="#ffbe92"/>
        <path d="M406.225,415.266s-10.332-37.725-11.082-39.628l-8.654-21.952s-6.122-14.973-6.485-17.623c-.433-1.763,4.447-2.157,5.682.146.837,1.562,4.061,11.044,6.887,14.384-1.2-3.516-5.635-15.936-5.635-15.936l-1.087-13.719c-.016-.168,1.2-.428,1.306-.558a.628.628,0,0,1,.432-.223,3.152,3.152,0,0,1,2.607,1.049l.544.613-.614-5.981a1.2,1.2,0,0,1,1-1.28h0a4.3,4.3,0,0,1,4.981,3.1l3.611,13.794s5.97,12.809,6.227,12.713c.667-.251-3.44-14.655-3.44-14.655l-2.173-13.425a1.328,1.328,0,0,1,1.325-1.421h0c1.893,0,4.813,1.739,5.245,3.582l2.412,10.3,5.423,14.84s2.05,3.643,3.508,5.857c.546.83,3.583-6.494,3.583-6.494l-.168-7.283a5.863,5.863,0,0,1,2.413-5.156h0c1.2-.865,3.559,1.5,3.939,2.926l2.181,8.2a8.265,8.265,0,0,1,.244,2.849l-1.291,14.562a8.262,8.262,0,0,1-.753,2.783l-5.463,11.618a19.209,19.209,0,0,0-1.772,9.633L405.667,411Z" fill="#ffbe92"/>
        <path d="M610.843,353.29a70.6,70.6,0,0,0-2.473-50.27c-1.518-3.4-2.955-6.031-4.087-7-11.077-9.524-67.548-18.359-75.486-12.213s-10.091,25.9-6.451,29.865c1.189,1.3,23.544,4.5,30.482,7.354-35.12,19.015-101.344,70.026-123.227,94.938-3.469-14.5-4.431-35.9-5.724-37.895-2.924-4.522-25.287-9.843-30.527-1.28-1.915,3.129-6.948,68.484,5.331,88.568a33.827,33.827,0,0,0,8.119,8.481,60.126,60.126,0,0,0,41.818,12.041c2.487-.2,48.643,1.355,95.373-35.891,8.814-7.026,8.166-7.771,16.7-12.63,37.616-21.411,47.748-76.487,47.748-76.487C608.441,360.814,609.461,357.607,610.843,353.29Z" fill="#ce483a"/>
        <path d="M406.8,473.834c.186.145.388.261.575.4,8.238,5.762,20.4,9.7,35.717,11.841q2.76.017,5.527-.2c2.487-.2,65.4-7.364,95.373-35.891,8.165-7.77,8.166-7.771,16.7-12.629,2.184-1.414,4.839-3.179,8.137-5.482,30.952-24.049,39.613-71.006,39.613-71.006,0-.053,1.02-3.26,2.4-7.577a72.449,72.449,0,0,0,3.423-24.163c-1.571-12-3.973-21.415-6.4-27.221a26.8,26.8,0,0,0-3.008-5.284,6.632,6.632,0,0,0-.57-.606c-11.077-9.524-67.548-18.359-75.486-12.213,19.592-1.752,86.046,11.377,75.325,25-21.372,1.6-28.515-.022-51.294,12.221,7.368-.98,38.263-11.048,38.789-2.855-33.2,3.059-40.857,38.817-57.363,50.981-4.453,3.618-39.989,32.225-48.3,37.011-19.345,14.668-54.191,11.331-59.346,42.877-1.655,10.121-7.494-14.851,2.989-33.076-15.006,14.713-16.352,25.789-20.812,47.456-11.8-1.394-15.187-64.479-15.44-86.631-1.914,3.129-6.947,68.484,5.332,88.567A33.826,33.826,0,0,0,406.8,473.834Z" fill="#231f20" opacity="0.17"/>
        <path d="M607.861,301.906c-.258-.554-.512-1.077-.762-1.575l0-.008-.09-.178c-.245-.48-.486-.937-.721-1.353h0a15.371,15.371,0,0,0-1.43-2.169,6.632,6.632,0,0,0-.57-.606c-11.077-9.524-67.548-18.359-75.486-12.213,19.592-1.752,86.046,11.377,75.325,25-21.372,1.6-28.515-.022-51.294,12.221,7.368-.98,38.263-11.048,38.789-2.855-33.2,3.059-40.857,38.817-57.363,50.981-4.453,3.618-39.989,32.225-48.3,37.011-19.345,14.668-54.191,11.331-59.346,42.877-1.655,10.121-7.494-14.851,2.989-33.076-15.006,14.713-16.352,25.789-20.812,47.456-11.8-1.394-15.187-64.479-15.44-86.631-1.914,3.129-6.947,68.484,5.332,88.567a33.826,33.826,0,0,0,8.118,8.482c.186.145.388.261.575.4h0a60.194,60.194,0,0,0,41.244,11.638c2.487-.2,48.644,1.355,95.373-35.891,8.814-7.026,8.166-7.771,16.7-12.63,37.616-21.411,47.748-76.487,47.748-76.487,0-.053,1.02-3.26,2.4-7.577a70.6,70.6,0,0,0-2.473-50.27c-.171-.383-.34-.752-.508-1.113Z" fill="#231f20" opacity="0.17" style="mix-blend-mode: overlay"/>
        <path d="M533.722,361.4c6.9,8.92,2.926,24.314-14.287,37.619s-32.378,14.549-39.274,5.629-3.948-24.251,13.264-37.556S526.827,352.477,533.722,361.4Z" fill="#fff"/>
        <path d="M612.614,315.87h0c1.358,22.147-13.032,79.73-42.481,101.968-22.921,17.309-14.494-1.4-44.37,34.029-22.162,26.279-77.519,33.412-107.969,27.894a23.569,23.569,0,0,1,5.042,2.755,62.145,62.145,0,0,0,25.782,3.36c2.487-.2,48.644,1.355,95.373-35.891,8.814-7.026,8.166-7.771,16.7-12.63,37.616-21.411,47.748-76.487,47.748-76.487,0-.053,1.02-3.26,2.4-7.577A71.568,71.568,0,0,0,612.614,315.87Z" fill="#231f20" opacity="0.17" style="mix-blend-mode: overlay"/>
        <path d="M438.783,374.76c1.847-10.791,2.137-18.99-5.735-31.813-20-44.9,49.158-61.98,61.942-40.212,2.036,3.466,3.9,6.755,5.65,9.91,4.6,1.852,9.267,2.524,14.638,2.982,2.226.191,10.38,14.908,8.461,20.27-1.4,3.91-5.047,5.688-3.224,8.81,4.565,7.82,7.769,18.228,9.672,20.69,11.946,15.452-33.854,51.031-46.995,36.328-4-4.475-11.168-8.184-17.586-14.571-2.562-2.551-5.2.53-9.337.9C450.6,388.561,438.407,376.962,438.783,374.76Z" fill="#ffb380"/>
        <path d="M510.249,388.166c11.036-7.86,15.206-15.028,15.394-28.575.135-9.693-8.669-33.56-12.025-46.111-6.13-22.056-24.1-44.677-51.532-30.11-19.131,6.683-62.963,25.8-42.967,70.7,5.234,8.528,9.176,16.59,18,18.54,19.9,12.773,30.2,17.429,39.832,21.346,13.357,5.433,21,2.893,32.78-5.427C509.907,388.409,510.079,388.288,510.249,388.166Z" fill="#3f2e18"/>
        <path d="M509.326,339.177a42.963,42.963,0,0,1-17.62,34.406c-.17.122-.342.243-.514.365-11.778,8.32-19.423,10.861-32.78,5.427-8.571-3.486-13.308-4.536-17.918-4.62,17.716,11.164,27.392,15.514,36.461,19.2,13.357,5.433,21,2.893,32.78-5.427.172-.122.344-.243.514-.365,11.036-7.86,15.206-15.028,15.394-28.575.135-9.693-8.669-33.561-12.026-46.111a69.559,69.559,0,0,0-2.734-7.938C514.237,318.091,509.461,329.485,509.326,339.177Z" fill="#332517"/>
        <path d="M462.093,296.31c-18.52,1.368-49.03,16.221-42.974,57.762-20-44.9,23.836-64.019,42.967-70.7,27.43-14.567,45.4,8.054,51.532,30.109C507.488,291.424,484.035,276.83,462.093,296.31Z" fill="#5b4227"/>
        <path d="M480.751,318.591c-5.33-8.175,2.68.971,10.332-1.272s-4.533,4.949,1.761,11.372c3.89,3.97-3.564,3.976-6.538-.869-1.852-3.018-7.977,2.228-8.955,1.684C470.381,325.631,485.562,325.969,480.751,318.591Z" fill="#5b4227"/>
      </g>
    </g>
  </g>
</svg>
