<svg xmlns="http://www.w3.org/2000/svg" width="432.698" height="293.315" viewBox="0 0 432.698 293.315">
  <g>
    <g>
      <path d="M361.042,0H71.922A16.366,16.366,0,0,0,55.455,16.264V200.956a7.225,7.225,0,0,0,7.225,7.225h307.6a7.225,7.225,0,0,0,7.225-7.225V16.264A16.366,16.366,0,0,0,361.042,0ZM367,203.7H65.96V16.264H367Z" fill="#1d1d1b"/>
      <path d="M215.588,5.48A2.409,2.409,0,1,0,218,7.888,2.409,2.409,0,0,0,215.588,5.48Z" fill="#1d1d1b"/>
      <path d="M215.588,6.44a1.449,1.449,0,1,0,1.448,1.448A1.448,1.448,0,0,0,215.588,6.44Z" fill="#3c3c3b"/>
    </g>
    <g>
      <g>
        <g>
          <path d="M383.328,209.956c-1.092-1.559-6.065-2.808-11.122-2.808H60.493c-5.057,0-10.031,1.249-11.123,2.808L.419,279.883c-1.691,2.415,1.888,13.432,8.019,13.432H424.26c6.131,0,9.711-11.017,8.019-13.432Z" fill="#c6c6c6"/>
          <g>
            <path d="M383.328,209.956c-1.092-1.559-6.065-2.808-11.122-2.808H60.493c-5.057,0-10.031,1.249-11.123,2.808L.419,279.883c-1.691,2.415,1.888,4.4,8.019,4.4H424.26c6.131,0,9.711-1.986,8.019-4.4Z" fill="#eaeaea"/>
            <path d="M381.964,210.605c-1.075-1.554-5.971-2.8-10.951-2.8l-309.266-.028c-4.979,0-9.876,1.246-10.951,2.8L3.767,278.015c-1.664,2.409,1.86,4.389,7.9,4.389h409.39c6.037,0,9.56-1.98,7.895-4.389Z" fill="#ebebeb"/>
            <path d="M380.6,211.254c-1.058-1.55-5.878-2.791-10.779-2.791L63,208.408c-4.9,0-9.721,1.242-10.778,2.792L7.116,276.148c-1.638,2.4,1.83,4.376,7.771,4.376H417.844c5.942,0,9.41-1.975,7.771-4.376Z" fill="#ececec"/>
            <path d="M379.236,211.9c-1.041-1.546-5.784-2.784-10.607-2.784l-304.374-.082c-4.823,0-9.566,1.238-10.606,2.784L10.465,274.28c-1.613,2.4,1.8,4.364,7.647,4.364H414.636c5.847,0,9.26-1.969,7.647-4.364Z" fill="#ededed"/>
            <path d="M377.872,212.553c-1.024-1.541-5.69-2.776-10.435-2.776l-301.928-.109c-4.744,0-9.411,1.234-10.434,2.775l-41.262,59.97c-1.586,2.388,1.772,4.351,7.523,4.351H411.429c5.751,0,9.109-1.963,7.522-4.351Z" fill="#eee"/>
            <path d="M376.507,213.2c-1.007-1.537-5.6-2.768-10.262-2.768L66.763,210.3c-4.666,0-9.255,1.232-10.262,2.768l-39.339,57.48c-1.56,2.381,1.743,4.34,7.4,4.34h383.66c5.656,0,8.959-1.959,7.4-4.34Z" fill="#efefef"/>
            <path d="M375.143,213.851c-.99-1.532-5.5-2.76-10.09-2.76l-297.036-.164c-4.588,0-9.1,1.228-10.09,2.76L20.511,268.678c-1.534,2.374,1.713,4.327,7.274,4.327H405.013c5.561,0,8.808-1.953,7.274-4.327Z" fill="#f0f0f0"/>
            <path d="M373.779,214.5c-.973-1.528-5.408-2.752-9.918-2.752l-294.59-.191c-4.51,0-8.945,1.224-9.918,2.752l-35.494,52.5c-1.507,2.368,1.684,4.315,7.151,4.315h370.8c5.467,0,8.658-1.947,7.15-4.315Z" fill="#f1f1f1"/>
            <path d="M372.415,215.149c-.956-1.523-5.314-2.744-9.746-2.744l-292.144-.218c-4.432,0-8.79,1.22-9.746,2.744L27.208,264.943c-1.482,2.361,1.655,4.3,7.027,4.3H398.6c5.372,0,8.508-1.941,7.026-4.3Z" fill="#f2f2f2"/>
            <path d="M371.051,215.8c-.939-1.52-5.221-2.737-9.574-2.737l-289.7-.245c-4.353,0-8.635,1.217-9.574,2.736L30.557,263.075c-1.456,2.354,1.625,4.29,6.9,4.29h357.93c5.277,0,8.358-1.936,6.9-4.29Z" fill="#f2f2f2"/>
            <path d="M369.687,216.448c-.923-1.515-5.127-2.729-9.4-2.729l-287.252-.273c-4.275,0-8.48,1.214-9.4,2.728L33.905,261.208c-1.429,2.347,1.6,4.277,6.779,4.277h351.5c5.182,0,8.208-1.93,6.778-4.277Z" fill="#f3f3f3"/>
            <path d="M368.323,217.1c-.906-1.51-5.033-2.72-9.23-2.72l-284.806-.3c-4.2,0-8.325,1.21-9.23,2.72l-27.8,42.544c-1.4,2.341,1.567,4.265,6.654,4.265H388.973c5.087,0,8.057-1.924,6.654-4.265Z" fill="#f4f4f4"/>
            <path d="M366.959,217.746c-.889-1.506-4.939-2.712-9.058-2.712l-282.36-.328c-4.119,0-8.169,1.207-9.058,2.712L40.6,257.473c-1.377,2.333,1.538,4.252,6.53,4.252H385.765c4.993,0,7.907-1.919,6.53-4.252Z" fill="#f5f5f5"/>
            <path d="M365.6,218.4c-.872-1.5-4.846-2.7-8.886-2.7L76.8,215.336c-4.04,0-8.014,1.2-8.886,2.7L43.951,255.606c-1.351,2.326,1.509,4.239,6.407,4.239h332.2c4.9,0,7.757-1.913,6.406-4.239Z" fill="#f6f6f6"/>
            <path d="M364.23,219.044c-.854-1.5-4.751-2.7-8.713-2.7l-277.469-.382c-3.961,0-7.858,1.2-8.713,2.7L47.3,253.738c-1.325,2.32,1.479,4.227,6.282,4.227H379.349c4.8,0,7.607-1.907,6.282-4.227Z" fill="#f7f7f7"/>
            <path d="M362.866,219.694c-.838-1.493-4.657-2.689-8.541-2.689L79.3,216.6c-3.883,0-7.7,1.2-8.541,2.689L50.649,251.871c-1.3,2.313,1.45,4.214,6.158,4.214H376.141c4.708,0,7.457-1.9,6.158-4.214Z" fill="#f8f8f8"/>
            <path d="M361.5,220.343c-.821-1.489-4.564-2.681-8.369-2.681l-272.577-.437c-3.8,0-7.548,1.193-8.369,2.681L54,250c-1.272,2.306,1.421,4.2,6.034,4.2h312.9c4.613,0,7.306-1.9,6.034-4.2Z" fill="#f9f9f9"/>
          </g>
          <path d="M380.238,209.956c-.714-1.039-4.041-1.879-7.42-1.879H59.878c-3.379,0-6.706.84-7.42,1.879L4.412,279.882c-1.05,1.528,1.234,2.781,5.1,2.781H423.181c3.869,0,6.152-1.253,5.1-2.781Z" fill="none" stroke="#ddd" stroke-miterlimit="10" stroke-width="0.484"/>
          <path d="M60.493,207.148a31.313,31.313,0,0,0-5.352.46c1.358.836,4.16,1.405,7.523,1.405h307.37c3.364,0,6.165-.569,7.523-1.405a31.3,31.3,0,0,0-5.351-.46Z" fill="#1d1d1b" opacity="0.1"/>
          <path d="M327.374,207.148H99.446L98.428,209.2c-.259.521.915.945,2.622.945H325.694c1.708,0,2.892-.424,2.647-.945Z" fill="#3c3c3b"/>
          <polygon points="68.09 212.756 43.54 252.718 389.159 252.718 364.609 212.756 68.09 212.756" fill="#3c3c3b"/>
          <g>
            <g>
              <polygon points="48.61 244.464 48.401 244.804 384.298 244.804 384.088 244.464 48.61 244.464" fill="#ededed" stroke="#ededed" stroke-miterlimit="10" stroke-width="0.968"/>
              <polygon points="53.281 236.86 53.084 237.182 379.615 237.182 379.417 236.86 53.281 236.86" fill="#ededed" stroke="#ededed" stroke-miterlimit="10" stroke-width="0.968"/>
              <polygon points="57.699 229.669 57.512 229.974 375.187 229.974 375 229.669 57.699 229.669" fill="#ededed" stroke="#ededed" stroke-miterlimit="10" stroke-width="0.968"/>
              <polygon points="61.884 222.858 61.707 223.146 370.992 223.146 370.815 222.858 61.884 222.858" fill="#ededed" stroke="#ededed" stroke-miterlimit="10" stroke-width="0.968"/>
              <polygon points="65.854 216.396 65.685 216.67 367.013 216.67 366.845 216.396 65.854 216.396" fill="#ededed" stroke="#ededed" stroke-miterlimit="10" stroke-width="0.968"/>
            </g>
            <g>
              <polygon points="347.007 212.756 349.052 216.533 350.019 216.533 347.959 212.756 347.007 212.756" fill="#ededed" stroke="#ededed" stroke-miterlimit="10" stroke-width="0.968"/>
              <polygon points="329.539 212.756 331.311 216.533 332.277 216.533 330.49 212.756 329.539 212.756" fill="#ededed" stroke="#ededed" stroke-miterlimit="10" stroke-width="0.968"/>
              <polygon points="312.072 212.756 313.57 216.533 314.537 216.533 313.023 212.756 312.072 212.756" fill="#ededed" stroke="#ededed" stroke-miterlimit="10" stroke-width="0.968"/>
              <polygon points="294.604 212.756 295.829 216.533 296.795 216.533 295.555 212.756 294.604 212.756" fill="#ededed" stroke="#ededed" stroke-miterlimit="10" stroke-width="0.968"/>
              <polygon points="277.137 212.756 278.088 216.533 279.054 216.533 278.088 212.756 277.137 212.756" fill="#ededed" stroke="#ededed" stroke-miterlimit="10" stroke-width="0.968"/>
              <polygon points="259.668 212.756 260.347 216.533 261.313 216.533 260.62 212.756 259.668 212.756" fill="#ededed" stroke="#ededed" stroke-miterlimit="10" stroke-width="0.968"/>
              <polygon points="242.2 212.756 242.605 216.533 243.571 216.533 243.152 212.756 242.2 212.756" fill="#ededed" stroke="#ededed" stroke-miterlimit="10" stroke-width="0.968"/>
              <polygon points="224.733 212.756 224.864 216.533 225.831 216.533 225.685 212.756 224.733 212.756" fill="#ededed" stroke="#ededed" stroke-miterlimit="10" stroke-width="0.968"/>
              <polygon points="207.122 216.533 208.09 216.533 208.217 212.756 207.264 212.756 207.122 216.533" fill="#ededed" stroke="#ededed" stroke-miterlimit="10" stroke-width="0.968"/>
              <polygon points="189.382 216.533 190.349 216.533 190.749 212.756 189.797 212.756 189.382 216.533" fill="#ededed" stroke="#ededed" stroke-miterlimit="10" stroke-width="0.968"/>
              <polygon points="171.64 216.533 172.608 216.533 173.282 212.756 172.329 212.756 171.64 216.533" fill="#ededed" stroke="#ededed" stroke-miterlimit="10" stroke-width="0.968"/>
              <polygon points="153.9 216.533 154.866 216.533 155.814 212.756 154.862 212.756 153.9 216.533" fill="#ededed" stroke="#ededed" stroke-miterlimit="10" stroke-width="0.968"/>
              <polygon points="136.158 216.533 137.126 216.533 138.347 212.756 137.394 212.756 136.158 216.533" fill="#ededed" stroke="#ededed" stroke-miterlimit="10" stroke-width="0.968"/>
              <polygon points="118.417 216.533 119.384 216.533 120.879 212.756 119.926 212.756 118.417 216.533" fill="#ededed" stroke="#ededed" stroke-miterlimit="10" stroke-width="0.968"/>
              <polygon points="100.676 216.533 101.643 216.533 103.411 212.756 102.458 212.756 100.676 216.533" fill="#ededed" stroke="#ededed" stroke-miterlimit="10" stroke-width="0.968"/>
              <polygon points="82.935 216.533 83.902 216.533 85.943 212.756 84.991 212.756 82.935 216.533" fill="#ededed" stroke="#ededed" stroke-miterlimit="10" stroke-width="0.968"/>
            </g>
            <g>
              <polygon points="333.447 216.533 336.537 223.002 337.43 223.002 334.316 216.533 333.447 216.533" fill="#ededed" stroke="#ededed" stroke-miterlimit="10" stroke-width="0.968"/>
              <polygon points="312.575 216.533 315.114 223.002 316.007 223.002 313.445 216.533 312.575 216.533" fill="#ededed" stroke="#ededed" stroke-miterlimit="10" stroke-width="0.968"/>
              <polygon points="291.703 216.533 293.692 223.002 294.584 223.002 292.572 216.533 291.703 216.533" fill="#ededed" stroke="#ededed" stroke-miterlimit="10" stroke-width="0.968"/>
              <polygon points="270.831 216.533 272.269 223.002 273.162 223.002 271.701 216.533 270.831 216.533" fill="#ededed" stroke="#ededed" stroke-miterlimit="10" stroke-width="0.968"/>
              <polygon points="249.959 216.533 250.846 223.002 251.739 223.002 250.829 216.533 249.959 216.533" fill="#ededed" stroke="#ededed" stroke-miterlimit="10" stroke-width="0.968"/>
              <polygon points="229.087 216.533 229.423 223.002 230.316 223.002 229.957 216.533 229.087 216.533" fill="#ededed" stroke="#ededed" stroke-miterlimit="10" stroke-width="0.968"/>
              <polygon points="208 223.002 208.893 223.002 209.085 216.533 208.215 216.533 208 223.002" fill="#ededed" stroke="#ededed" stroke-miterlimit="10" stroke-width="0.968"/>
              <polygon points="186.578 223.002 187.47 223.002 188.213 216.533 187.343 216.533 186.578 223.002" fill="#ededed" stroke="#ededed" stroke-miterlimit="10" stroke-width="0.968"/>
              <polygon points="165.155 223.002 166.047 223.002 167.341 216.533 166.471 216.533 165.155 223.002" fill="#ededed" stroke="#ededed" stroke-miterlimit="10" stroke-width="0.968"/>
              <polygon points="143.732 223.002 144.625 223.002 146.469 216.533 145.599 216.533 143.732 223.002" fill="#ededed" stroke="#ededed" stroke-miterlimit="10" stroke-width="0.968"/>
              <polygon points="122.309 223.002 123.202 223.002 125.597 216.533 124.727 216.533 122.309 223.002" fill="#ededed" stroke="#ededed" stroke-miterlimit="10" stroke-width="0.968"/>
              <polygon points="100.887 223.002 101.779 223.002 104.725 216.533 103.856 216.533 100.887 223.002" fill="#ededed" stroke="#ededed" stroke-miterlimit="10" stroke-width="0.968"/>
              <polygon points="79.464 223.002 80.356 223.002 83.853 216.533 82.983 216.533 79.464 223.002" fill="#ededed" stroke="#ededed" stroke-miterlimit="10" stroke-width="0.968"/>
            </g>
            <g>
              <polygon points="343.232 223.002 346.671 229.822 347.588 229.822 344.124 223.002 343.232 223.002" fill="#ededed" stroke="#ededed" stroke-miterlimit="10" stroke-width="0.968"/>
              <polygon points="321.809 223.002 324.668 229.822 325.585 229.822 322.702 223.002 321.809 223.002" fill="#ededed" stroke="#ededed" stroke-miterlimit="10" stroke-width="0.968"/>
              <polygon points="300.386 223.002 302.664 229.822 303.581 229.822 301.279 223.002 300.386 223.002" fill="#ededed" stroke="#ededed" stroke-miterlimit="10" stroke-width="0.968"/>
              <polygon points="278.964 223.002 280.661 229.822 281.578 229.822 279.856 223.002 278.964 223.002" fill="#ededed" stroke="#ededed" stroke-miterlimit="10" stroke-width="0.968"/>
              <polygon points="257.541 223.002 258.657 229.822 259.574 229.822 258.433 223.002 257.541 223.002" fill="#ededed" stroke="#ededed" stroke-miterlimit="10" stroke-width="0.968"/>
              <polygon points="236.118 223.002 236.654 229.822 237.57 229.822 237.01 223.002 236.118 223.002" fill="#ededed" stroke="#ededed" stroke-miterlimit="10" stroke-width="0.968"/>
              <polygon points="214.65 229.822 215.567 229.822 215.588 223.002 214.695 223.002 214.65 229.822" fill="#ededed" stroke="#ededed" stroke-miterlimit="10" stroke-width="0.968"/>
              <polygon points="192.647 229.822 193.563 229.822 194.165 223.002 193.272 223.002 192.647 229.822" fill="#ededed" stroke="#ededed" stroke-miterlimit="10" stroke-width="0.968"/>
              <polygon points="170.643 229.822 171.56 229.822 172.742 223.002 171.85 223.002 170.643 229.822" fill="#ededed" stroke="#ededed" stroke-miterlimit="10" stroke-width="0.968"/>
              <polygon points="148.64 229.822 149.556 229.822 151.319 223.002 150.427 223.002 148.64 229.822" fill="#ededed" stroke="#ededed" stroke-miterlimit="10" stroke-width="0.968"/>
              <polygon points="126.636 229.822 127.553 229.822 129.896 223.002 129.004 223.002 126.636 229.822" fill="#ededed" stroke="#ededed" stroke-miterlimit="10" stroke-width="0.968"/>
              <polygon points="104.633 229.822 105.549 229.822 108.474 223.002 107.581 223.002 104.633 229.822" fill="#ededed" stroke="#ededed" stroke-miterlimit="10" stroke-width="0.968"/>
              <polygon points="82.629 229.822 83.546 229.822 87.051 223.002 86.158 223.002 82.629 229.822" fill="#ededed" stroke="#ededed" stroke-miterlimit="10" stroke-width="0.968"/>
            </g>
            <g>
              <polygon points="336.128 229.822 339.466 237.021 340.408 237.021 337.045 229.822 336.128 229.822" fill="#ededed" stroke="#ededed" stroke-miterlimit="10" stroke-width="0.968"/>
              <polygon points="314.125 229.822 316.849 237.021 317.791 237.021 315.041 229.822 314.125 229.822" fill="#ededed" stroke="#ededed" stroke-miterlimit="10" stroke-width="0.968"/>
              <polygon points="292.121 229.822 294.232 237.021 295.174 237.021 293.038 229.822 292.121 229.822" fill="#ededed" stroke="#ededed" stroke-miterlimit="10" stroke-width="0.968"/>
              <polygon points="270.118 229.822 271.616 237.021 272.558 237.021 271.034 229.822 270.118 229.822" fill="#ededed" stroke="#ededed" stroke-miterlimit="10" stroke-width="0.968"/>
              <polygon points="248.114 229.822 248.999 237.021 249.941 237.021 249.031 229.822 248.114 229.822" fill="#ededed" stroke="#ededed" stroke-miterlimit="10" stroke-width="0.968"/>
              <polygon points="226.11 229.822 226.382 237.021 227.325 237.021 227.027 229.822 226.11 229.822" fill="#ededed" stroke="#ededed" stroke-miterlimit="10" stroke-width="0.968"/>
              <polygon points="203.766 237.021 204.708 237.021 205.024 229.822 204.107 229.822 203.766 237.021" fill="#ededed" stroke="#ededed" stroke-miterlimit="10" stroke-width="0.968"/>
              <polygon points="181.149 237.021 182.091 237.021 183.02 229.822 182.103 229.822 181.149 237.021" fill="#ededed" stroke="#ededed" stroke-miterlimit="10" stroke-width="0.968"/>
              <polygon points="158.533 237.021 159.475 237.021 161.017 229.822 160.1 229.822 158.533 237.021" fill="#ededed" stroke="#ededed" stroke-miterlimit="10" stroke-width="0.968"/>
              <polygon points="135.916 237.021 136.858 237.021 139.013 229.822 138.096 229.822 135.916 237.021" fill="#ededed" stroke="#ededed" stroke-miterlimit="10" stroke-width="0.968"/>
              <polygon points="113.299 237.021 114.241 237.021 117.009 229.822 116.093 229.822 113.299 237.021" fill="#ededed" stroke="#ededed" stroke-miterlimit="10" stroke-width="0.968"/>
              <polygon points="90.682 237.021 91.625 237.021 95.006 229.822 94.089 229.822 90.682 237.021" fill="#ededed" stroke="#ededed" stroke-miterlimit="10" stroke-width="0.968"/>
            </g>
            <g>
              <polygon points="325.339 237.041 328.463 244.655 329.432 244.655 326.281 237.041 325.339 237.041" fill="#ededed" stroke="#ededed" stroke-miterlimit="10" stroke-width="0.968"/>
              <polygon points="302.72 237.041 305.196 244.655 306.165 244.655 303.663 237.041 302.72 237.041" fill="#ededed" stroke="#ededed" stroke-miterlimit="10" stroke-width="0.968"/>
              <polygon points="280.101 237.041 281.929 244.655 282.898 244.655 281.044 237.041 280.101 237.041" fill="#ededed" stroke="#ededed" stroke-miterlimit="10" stroke-width="0.968"/>
              <polygon points="257.483 237.041 258.663 244.655 259.632 244.655 258.426 237.041 257.483 237.041" fill="#ededed" stroke="#ededed" stroke-miterlimit="10" stroke-width="0.968"/>
              <polygon points="234.865 237.041 235.396 244.655 236.365 244.655 235.807 237.041 234.865 237.041" fill="#ededed" stroke="#ededed" stroke-miterlimit="10" stroke-width="0.968"/>
              <polygon points="212.129 244.655 213.098 244.655 213.189 237.041 212.247 237.041 212.129 244.655" fill="#ededed" stroke="#ededed" stroke-miterlimit="10" stroke-width="0.968"/>
              <polygon points="188.862 244.655 189.832 244.655 190.571 237.041 189.628 237.041 188.862 244.655" fill="#ededed" stroke="#ededed" stroke-miterlimit="10" stroke-width="0.968"/>
              <polygon points="165.596 244.655 166.565 244.655 167.952 237.041 167.01 237.041 165.596 244.655" fill="#ededed" stroke="#ededed" stroke-miterlimit="10" stroke-width="0.968"/>
              <polygon points="142.329 244.655 143.299 244.655 145.334 237.041 144.392 237.041 142.329 244.655" fill="#ededed" stroke="#ededed" stroke-miterlimit="10" stroke-width="0.968"/>
              <polygon points="119.062 244.655 120.032 244.655 122.716 237.041 121.773 237.041 119.062 244.655" fill="#ededed" stroke="#ededed" stroke-miterlimit="10" stroke-width="0.968"/>
              <polygon points="95.796 244.655 96.765 244.655 100.097 237.041 99.155 237.041 95.796 244.655" fill="#ededed" stroke="#ededed" stroke-miterlimit="10" stroke-width="0.968"/>
            </g>
            <g>
              <polygon points="359.969 244.655 364.208 252.718 365.206 252.718 360.939 244.655 359.969 244.655" fill="#ededed" stroke="#ededed" stroke-miterlimit="10" stroke-width="0.968"/>
              <polygon points="305.448 248.452 305.561 248.803 386.754 248.803 386.539 248.452 305.448 248.452" fill="#ededed" stroke="#ededed" stroke-miterlimit="10" stroke-width="0.968"/>
              <polygon points="331.855 244.655 335.264 252.718 336.262 252.718 332.825 244.655 331.855 244.655" fill="#ededed" stroke="#ededed" stroke-miterlimit="10" stroke-width="0.968"/>
              <polygon points="303.742 244.655 306.321 252.718 307.319 252.718 304.711 244.655 303.742 244.655" fill="#ededed" stroke="#ededed" stroke-miterlimit="10" stroke-width="0.968"/>
              <polygon points="280.475 244.655 282.367 252.718 283.365 252.718 281.444 244.655 280.475 244.655" fill="#ededed" stroke="#ededed" stroke-miterlimit="10" stroke-width="0.968"/>
              <polygon points="257.208 244.655 258.414 252.718 259.412 252.718 258.177 244.655 257.208 244.655" fill="#ededed" stroke="#ededed" stroke-miterlimit="10" stroke-width="0.968"/>
              <polygon points="138.648 252.718 139.646 252.718 141.844 244.655 140.875 244.655 138.648 252.718" fill="#ededed" stroke="#ededed" stroke-miterlimit="10" stroke-width="0.968"/>
              <polygon points="114.694 252.718 115.692 252.718 118.578 244.655 117.608 244.655 114.694 252.718" fill="#ededed" stroke="#ededed" stroke-miterlimit="10" stroke-width="0.968"/>
              <polygon points="90.741 252.718 91.739 252.718 95.311 244.655 94.342 244.655 90.741 252.718" fill="#ededed" stroke="#ededed" stroke-miterlimit="10" stroke-width="0.968"/>
              <polygon points="66.788 252.718 67.786 252.718 72.044 244.655 71.075 244.655 66.788 252.718" fill="#ededed" stroke="#ededed" stroke-miterlimit="10" stroke-width="0.968"/>
            </g>
          </g>
          <path d="M258.277,258.762H174.421c-2.252,0-4.186.676-4.32,1.514L167.664,275.5c-.15.934,1.671,1.7,4.067,1.7h89.236c2.4,0,4.218-.762,4.068-1.7L262.6,260.276C262.463,259.438,260.529,258.762,258.277,258.762Z" fill="none" stroke="#fff" stroke-miterlimit="10" stroke-width="1.806" opacity="0.5"/>
          <path d="M258.277,258.762H174.421c-2.252,0-4.186.676-4.32,1.514L167.664,275.5c-.15.934,1.671,1.7,4.067,1.7h89.236c2.4,0,4.218-.762,4.068-1.7L262.6,260.276C262.463,259.438,260.529,258.762,258.277,258.762Z" fill="#dadada"/>
          <path d="M168.373,271.067l-.709,4.433c-.15.934,1.671,1.7,4.067,1.7h89.236c2.4,0,4.218-.762,4.068-1.7l-.71-4.433Z" fill="#cecece"/>
        </g>
        <rect x="65.96" y="16.264" width="301.044" height="187.432" fill="#2f2f2f"/>
        <rect x="65.96" y="16.264" width="301.044" height="6.265" fill="#b2b2b2" opacity="0.7"/>
      </g>
      <g>
        <polygon points="237.666 22.529 237.666 37.464 190.204 37.464 190.204 203.696 367.004 203.696 367.004 22.529 237.666 22.529" fill="#353535"/>
        <g>
          <rect x="119.303" y="79.749" width="32.587" height="1.596" fill="#e2decf"/>
          <rect x="118.412" y="73.366" width="32.586" height="1.596" fill="#e2decf"/>
          <rect x="65.96" y="65.397" width="124.244" height="5.31" fill="#68bcdd"/>
          <rect x="114.849" y="66.984" width="50.4" height="1.595" fill="#e2decf"/>
          <rect x="114.849" y="60.601" width="32.586" height="1.596" fill="#e2decf"/>
          <rect x="114.849" y="54.218" width="68.214" height="1.596" fill="#e2decf"/>
          <rect x="114.849" y="47.836" width="68.214" height="1.596" fill="#e2decf"/>
          <rect x="96.364" y="40.655" width="32.587" height="3.191" fill="#e2decf"/>
          <rect x="76.785" y="34.273" width="32.587" height="3.191" fill="#e2decf"/>
        </g>
        <g>
          <rect x="235.003" y="103.683" width="45.606" height="1.596" fill="#e04f44"/>
          <rect x="235.003" y="97.301" width="27.792" height="1.596" fill="#374e72"/>
          <rect x="235.003" y="90.918" width="9.978" height="1.596" fill="#e04f44"/>
          <rect x="235.003" y="84.535" width="9.978" height="1.596" fill="#374e72"/>
          <rect x="235.003" y="78.153" width="27.792" height="1.596" fill="#e04f44"/>
          <rect x="270.631" y="71.77" width="27.792" height="1.596" fill="#e2decf"/>
          <rect x="252.817" y="65.388" width="27.792" height="1.596" fill="#374e72"/>
          <rect x="235.003" y="59.005" width="27.792" height="1.595" fill="#e04f44"/>
          <rect x="235.003" y="52.622" width="27.792" height="1.596" fill="#374e72"/>
          <rect x="217.189" y="46.24" width="27.792" height="1.596" fill="#e04f44"/>
          <rect x="282.836" y="103.785" width="58.785" height="1.392" fill="#e2decf"/>
          <rect x="265.022" y="97.403" width="23.158" height="1.392" fill="#68bcdd"/>
          <rect x="247.208" y="91.02" width="94.412" height="1.391" fill="#e2decf"/>
          <rect x="247.208" y="84.638" width="76.599" height="1.391" fill="#e2decf"/>
          <rect x="265.022" y="78.255" width="76.598" height="1.391" fill="#e2decf"/>
          <rect x="300.649" y="71.872" width="58.785" height="1.391" fill="#e2decf"/>
          <rect x="282.836" y="65.49" width="23.158" height="1.392" fill="#68bcdd"/>
          <rect x="265.022" y="59.107" width="40.971" height="1.391" fill="#e2decf"/>
          <rect x="265.022" y="52.725" width="94.412" height="1.392" fill="#e2decf"/>
          <rect x="247.208" y="46.342" width="94.412" height="1.391" fill="#e2decf"/>
        </g>
        <g>
          <rect x="273.898" y="161.126" width="27.792" height="1.596" fill="#374e72"/>
          <rect x="273.898" y="154.744" width="9.978" height="1.596" fill="#e04f44"/>
          <rect x="273.898" y="148.361" width="9.978" height="1.596" fill="#374e72"/>
          <rect x="273.898" y="141.978" width="27.792" height="1.596" fill="#e04f44"/>
          <rect x="273.898" y="135.596" width="24.524" height="1.596" fill="#e2decf"/>
          <rect x="252.817" y="129.213" width="27.792" height="1.596" fill="#374e72"/>
          <rect x="235.003" y="122.831" width="27.792" height="1.595" fill="#e04f44"/>
          <rect x="235.003" y="116.448" width="27.792" height="1.595" fill="#374e72"/>
          <rect x="217.189" y="110.066" width="27.792" height="1.596" fill="#e04f44"/>
          <rect x="303.917" y="161.228" width="23.158" height="1.392" fill="#e2decf"/>
          <rect x="286.103" y="154.846" width="55.517" height="1.391" fill="#e2decf"/>
          <rect x="286.103" y="148.463" width="37.704" height="1.391" fill="#e2decf"/>
          <rect x="300.649" y="135.698" width="58.785" height="1.391" fill="#e2decf"/>
          <rect x="282.836" y="129.316" width="23.158" height="1.391" fill="#68bcdd"/>
          <rect x="265.022" y="122.933" width="40.971" height="1.391" fill="#e2decf"/>
          <rect x="265.022" y="116.55" width="94.412" height="1.392" fill="#e2decf"/>
          <rect x="247.208" y="110.168" width="94.412" height="1.392" fill="#e2decf"/>
        </g>
        <g>
          <rect x="199.376" y="103.683" width="5.303" height="1.596" fill="#e2decf"/>
          <rect x="199.376" y="97.301" width="5.303" height="1.596" fill="#e2decf"/>
          <rect x="199.376" y="90.918" width="5.303" height="1.596" fill="#e2decf"/>
          <rect x="199.376" y="84.535" width="5.303" height="1.596" fill="#e2decf"/>
          <rect x="199.376" y="78.153" width="5.303" height="1.596" fill="#e2decf"/>
          <rect x="199.376" y="71.77" width="5.303" height="1.596" fill="#e2decf"/>
          <rect x="199.376" y="65.388" width="5.303" height="1.596" fill="#e2decf"/>
          <rect x="199.376" y="59.005" width="5.303" height="1.595" fill="#e2decf"/>
          <rect x="199.376" y="52.622" width="5.303" height="1.596" fill="#e2decf"/>
          <rect x="199.376" y="46.24" width="5.303" height="1.596" fill="#e2decf"/>
        </g>
        <g>
          <rect x="199.376" y="161.126" width="5.303" height="1.596" fill="#e2decf"/>
          <rect x="199.376" y="154.744" width="5.303" height="1.596" fill="#e2decf"/>
          <rect x="199.376" y="148.361" width="5.303" height="1.596" fill="#e2decf"/>
          <rect x="199.376" y="141.979" width="5.303" height="1.596" fill="#e2decf"/>
          <rect x="199.376" y="135.596" width="5.303" height="1.596" fill="#e2decf"/>
          <rect x="199.376" y="129.213" width="5.303" height="1.596" fill="#e2decf"/>
          <rect x="199.376" y="122.831" width="5.303" height="1.596" fill="#e2decf"/>
          <rect x="199.376" y="116.448" width="5.303" height="1.595" fill="#e2decf"/>
          <rect x="199.376" y="110.066" width="5.303" height="1.596" fill="#e2decf"/>
          <rect x="199.376" y="103.683" width="5.303" height="1.596" fill="#e2decf"/>
        </g>
        <rect x="195.739" y="28.401" width="32.587" height="3.191" fill="#e2decf"/>
        <rect x="244.982" y="26.448" width="71.691" height="7.824" fill="#e2decf"/>
        <rect x="248.729" y="29.17" width="54.593" height="2.381" fill="#221c13"/>
      </g>
    </g>
    <g>
      <path d="M414.665,259.011c0-4.248-32.768-7.691-73.19-7.691s-73.191,3.443-73.191,7.691a.853.853,0,0,1,0,.886c0,4.247,32.769,7.69,73.191,7.69s73.19-3.443,73.19-7.69a.853.853,0,0,1,0-.886Z" opacity="0.12"/>
      <path d="M314.77,226.949a49.839,49.839,0,0,0,25.893,7.478c14.7,0,27.167-7.364,28.644-7.653a35.673,35.673,0,0,1,2.663,5.136.326.326,0,0,1-.043.33l-23.712,28.048c-5.353,1.123-12.2.181-12.2.181l-23.781-28.534a.328.328,0,0,1-.036-.366S314.615,226.872,314.77,226.949Z" fill="#323254"/>
      <path d="M313.389,233.321a15.018,15.018,0,0,1,1.381-2.35,49.849,49.849,0,0,0,25.893,7.478c14.7,0,27.167-7.364,28.644-7.654a26.436,26.436,0,0,1,1.544,2.717l1.076-1.272a.326.326,0,0,0,.043-.33,35.673,35.673,0,0,0-2.663-5.136c-1.477.289-13.942,7.653-28.644,7.653a49.839,49.839,0,0,1-25.893-7.478c-.155-.077-2.572,4.62-2.572,4.62a.328.328,0,0,0,.036.366Z" fill="#2a2a2b"/>
      <path d="M373.926,258.077c9.159-4.42,29.194-16.328,37.633-34.154,1.174-2.479-1.762-12.952-11.377-9.567-5.948,2.094-36.858,12.538-41.855,19.163-8.072,10.7-8.447,20.451-10.112,26.769C352.755,262.247,369.346,260.287,373.926,258.077Z" fill="#323254"/>
      <path d="M309.165,258.147c-9.159-4.42-35.691-23.537-36.925-34.224-.315-2.725-2.974-11.078,8.433-10.717,5.949,2.094,39.193,14.2,44.8,20.313,7.025,7.667,9.33,20.938,10.112,26.769C331.044,262.247,313.745,260.357,309.165,258.147Z" fill="#323254"/>
      <path d="M370.065,253.091c-8.733-.385-18.228-1.414-21.85-2.211-10.414-4.244-67-37.191-67-37.191-9.23-2.444-12.159,6.991-9.365,11.906,7.272,12.792,14.1,20.141,39.914,23.558,7.682,1.016,22.2,5.345,30.081,8.283.528,1.8,2.385,3.826,6.691,4.255,2.288.228,15.318,4.9,21.377,4.364,10.1-.887,10.052-5.392,10.1-7.392S377.575,253.422,370.065,253.091Z" fill="#fcbd85"/>
      <g>
        <path d="M370.065,253.091c-8.733-.385-18.228-1.414-21.85-2.211-.245-.1-.524-.221-.82-.352l-7.02,6.372c.51.183,1,.362,1.471.536.528,1.8,2.385,3.826,6.691,4.255,2.288.228,15.318,4.9,21.377,4.364,10.1-.887,10.052-5.392,10.1-7.392S377.575,253.422,370.065,253.091Z" fill="#3f3533"/>
        <path d="M369.914,266.055c10.1-.887,10.052-5.392,10.1-7.392.039-1.769-1.9-4.5-7.545-5.343-1.424,1.193-3.546,4.849-3.788,9.814-11.409.442-21.5-3.565-26.808-5.638.552,1.787,2.41,3.771,6.669,4.195C350.825,261.919,363.855,266.587,369.914,266.055Z" fill="#ede6d2"/>
        <path d="M352.057,258.6a.529.529,0,0,1-.53-.528l0-.488a12.662,12.662,0,0,1,1.894-6.744.531.531,0,0,1,.9.559,11.594,11.594,0,0,0-1.736,6.178l0,.489a.531.531,0,0,1-.528.534Z" fill="#e6e7e8"/>
        <path d="M355.139,259.091a.532.532,0,0,1-.531-.527l0-.489a12.652,12.652,0,0,1,1.895-6.744.531.531,0,1,1,.9.559,11.592,11.592,0,0,0-1.736,6.178l0,.488a.532.532,0,0,1-.527.535Z" fill="#e6e7e8"/>
        <path d="M358.257,259.488a.531.531,0,0,1-.531-.528l0-.488a12.663,12.663,0,0,1,1.895-6.744.531.531,0,1,1,.9.559,11.612,11.612,0,0,0-1.736,6.178l0,.489a.53.53,0,0,1-.527.534Z" fill="#e6e7e8"/>
        <path d="M360.9,259.789a.529.529,0,0,1-.53-.528l0-.488a12.654,12.654,0,0,1,1.894-6.743.531.531,0,0,1,.9.558,11.6,11.6,0,0,0-1.736,6.178l0,.489a.531.531,0,0,1-.528.534Z" fill="#e6e7e8"/>
      </g>
      <path d="M348.215,250.88c-1.59-.648-4.26-1.967-7.637-3.734h0c-2.4,1.326-5.226,2.912-5.916,3.224-.795.178-6.242.892-9.874,1.692,6.192,1.682,12.66,3.735,17.058,5.374a4.6,4.6,0,0,0,.574,1.227c4.593-2.5,16.015-4.183,20.543-6.007A133.609,133.609,0,0,1,348.215,250.88Z" opacity="0.05"/>
      <path d="M280.673,213.206s31.254,18.1,51.722,29a49.235,49.235,0,0,1-.772,9.007c-.712,1.628-5.1,7.306-7.018,9.585-7.368-4.826-10.843-7.011-15.326-8.374-29.933-9.1-32.628-13.359-39.9-26.151C266.584,221.356,271.443,210.763,280.673,213.206Z" fill="#36365b"/>
      <path d="M269.067,225.608c-.046-.116-.093-.232-.133-.353-.022-.069-.04-.141-.06-.211-.032-.112-.066-.225-.092-.34-.018-.077-.031-.156-.046-.234-.022-.113-.045-.226-.061-.343-.012-.08-.019-.162-.028-.244-.013-.117-.026-.234-.034-.354-.006-.082-.008-.166-.011-.25,0-.121-.008-.242-.007-.364,0-.084,0-.169.007-.253.005-.125.011-.251.02-.377.006-.083.015-.166.023-.249.014-.131.029-.261.048-.392.011-.081.024-.161.038-.242.023-.135.048-.271.076-.406.016-.077.033-.154.051-.232.033-.14.068-.28.107-.42.02-.073.04-.146.062-.218.043-.145.089-.289.139-.433.023-.068.045-.135.07-.2.054-.149.113-.3.174-.447.025-.06.049-.121.075-.182.067-.155.139-.308.214-.461.025-.052.049-.105.076-.157.081-.162.169-.321.258-.48.024-.041.046-.083.07-.125.1-.172.208-.342.318-.509.017-.025.032-.051.049-.076.129-.192.263-.381.4-.565h0c.192.33.384.67.579,1.035,8.329,15.656,51.162,30.672,60.169,33.686l0,.006c-.717,1.633-5.1,7.3-7.016,9.581-7.368-4.826-10.843-7.011-15.326-8.374-29.933-9.1-32.628-13.359-39.9-26.151a5.366,5.366,0,0,1-.245-.492C269.109,225.724,269.09,225.665,269.067,225.608Z" opacity="0.05"/>
      <path d="M331.623,251.211c.031-.11.065-.267.1-.461-4.616,1.082-11.7,2.655-17.862,2.731-.542.006-1.055.026-1.546.056,3.28,1.415,6.641,3.56,12.288,7.259C326.519,258.517,330.911,252.839,331.623,251.211Z" fill="#323233"/>
      <path d="M402.258,215.057s-57.787,33.894-67.562,36.209a142.54,142.54,0,0,1-22.379,2.271c-7.516.092-8.463,3.64-8.419,5.64s4.2,6.483,7.291,6.878c9.541,1.219,21.025-3.135,23.313-3.363,4.766-.475,7.294-3.905,7.577-5.824,7.338-2.986,23.288-6.52,29.955-7.33,26.027-3.159,32.642-11.923,39.914-24.714C414.743,219.908,411.488,212.614,402.258,215.057Z" fill="#fcbd85"/>
      <path d="M402.584,213.689s-31.254,18.1-51.722,29a49.245,49.245,0,0,0,.772,9.007c.712,1.628,5.1,7.305,7.018,9.585,7.368-4.826,10.843-7.012,15.326-8.375,29.933-9.1,32.628-13.358,39.9-26.15C416.673,221.839,411.814,211.245,402.584,213.689Z" fill="#36365b"/>
      <path d="M414.19,226.091c.046-.116.093-.232.133-.353.022-.069.04-.141.06-.211.033-.113.066-.225.092-.341.018-.076.031-.155.046-.233.022-.113.045-.227.061-.343.012-.081.019-.163.028-.245.014-.117.026-.234.034-.353.006-.083.008-.167.011-.25,0-.121.007-.242.007-.365,0-.083,0-.168-.007-.252,0-.126-.01-.251-.02-.378-.007-.083-.015-.166-.023-.249-.014-.13-.029-.26-.048-.391-.011-.081-.024-.162-.038-.242-.023-.136-.048-.271-.076-.406-.016-.078-.033-.155-.051-.232-.033-.14-.068-.28-.107-.42-.02-.073-.04-.146-.062-.219-.043-.145-.09-.289-.139-.433-.023-.067-.046-.135-.07-.2-.054-.15-.113-.3-.174-.447-.025-.061-.049-.122-.075-.182-.067-.155-.139-.308-.214-.461-.025-.053-.049-.106-.076-.158-.081-.161-.169-.321-.258-.479-.024-.042-.046-.084-.07-.125-.1-.172-.208-.342-.318-.51-.017-.025-.032-.051-.049-.076-.129-.192-.263-.38-.4-.564h0c-.192.329-.384.67-.579,1.035-8.329,15.656-51.162,30.671-60.169,33.685l0,.007c.717,1.633,5.1,7.3,7.016,9.581,7.368-4.826,10.843-7.012,15.326-8.375,29.933-9.1,32.628-13.358,39.9-26.15.089-.158.171-.323.245-.492C414.148,226.207,414.167,226.148,414.19,226.091Z" opacity="0.05"/>
      <path d="M340.663,234.427a47.271,47.271,0,0,1-4.931-.26v3.957a1,1,0,0,0,1,1h7.861a1,1,0,0,0,1-1v-3.967A46.867,46.867,0,0,1,340.663,234.427Z" fill="#323233"/>
      <path d="M344.551,234.158v2.879a.592.592,0,0,1-.593.593h-6.589a.593.593,0,0,1-.594-.593v-2.871h-1.043v3.957a1,1,0,0,0,1,1h7.861a1,1,0,0,0,1-1v-3.967Z" fill="#dbddd9"/>
      <path d="M332.124,152.677c-3.053-1.416-8.113-7.3-9.7-19.743-1.172-9.175-2.356-19.581,8.861-21.5,7.044-2.35,24.082-4.25,27.192,7.615,1.5,13.928-3.11,34.276-10.017,33.569-.247,4.411-7.693,3.263-9.582,3.762C334.058,157.647,332.124,152.677,332.124,152.677Z" fill="#664e38"/>
      <path d="M305.209,225.32l9.128,8.485,52.1.155,9.33-8.643a5.9,5.9,0,0,0,1.89-4.329H303.321A5.913,5.913,0,0,0,305.209,225.32Z" fill="#ddddd7"/>
      <polygon points="303.321 220.988 317.13 232.32 365.43 232.32 377.655 220.988 303.321 220.988" fill="#d3d3cd"/>
      <path d="M392.145,201.913c-.977-6.106-7.45-34.439-16.807-41.481-13.248-10.036-40.06-13.265-68.122-.862-9.722,4.817-14.275,36.609-15.546,43.511-2.389,12.97,17.567,17.35,20.488,17.907,5.881,1.123,7.639-1.807,8.486-4.017,1.466-3.825-10.734-10.394-11.488-14.591,3.214-15.771.911-15.128.037-21.748.947,4.493-.539,6.379,3.927,15.395.868,1.752,2.6,25.091,1.65,30.922-.37,2.286,55.094,2.16,54.537-.175-1.35-5.656-.27-30.285.351-31.825,2.6-6.438,2.815-13.02,3.155-14.878-.6,3.775-2.689,4.337,0,20.206-3.174,3.023-11.188,14.036-9.85,17.907.773,2.237,3.371,5.609,6.76,2.8C372.291,218.853,394.248,215.057,392.145,201.913Z" fill="#e04f44"/>
      <path d="M351.519,161.383a3.985,3.985,0,0,0,1.211-3.486c-.4-2.786-1.014-8.047-.52-11.372.658-4.426-22.6-1.871-22.6-1.871s-.124,8.621-.763,12.891a4,4,0,0,0,.792,3.109c1.883,2.348,5.814,4.565,10.819,4.938A14.784,14.784,0,0,0,351.519,161.383Z" fill="#f4b07d"/>
      <path d="M357.039,133.8h0a1.8,1.8,0,0,1,1.643,1.285c.5,2.336-.469,7.146-1.671,8.22a6.171,6.171,0,0,1-2.586,1.162Z" fill="#fcbd85"/>
      <path d="M356.625,139.243c-.195,1.578-.573,2.1-1.26,2.012s-1.086-1.433-.89-3.011.911-2.787,1.6-2.7S356.82,137.666,356.625,139.243Z" opacity="0.05"/>
      <path d="M324.288,133.8h0a2.038,2.038,0,0,0-1.811,1.258c-.553,2.143-.048,6.205,1.5,7.68a6.19,6.19,0,0,0,2.223,1.278Z" fill="#fcbd85"/>
      <path d="M324.31,139.132c.2,1.578.56,2.208,1.247,2.123s1.085-1.433.89-3.011-.911-2.787-1.6-2.7S324.115,137.555,324.31,139.132Z" opacity="0.05"/>
      <path d="M353.088,129.758c1.754.841.987,9.082.987,11.085,0,.787.862.42,1.29.412a45.976,45.976,0,0,1-1.03,10.169c-.546,1.9-8.8,8.094-13.672,8.094s-13.771-7.325-14.24-9.24c-.655-2.669-.558-4.8-.866-9.023.667.094,1.213.116,1.213-.459,0-.868-1.213-11.295,3.682-13.546C333.705,129.574,349.615,130.658,353.088,129.758Z" fill="#fcbd85"/>
      <path d="M309.285,180.071a1.418,1.418,0,0,1-.129.615l.033-.048,0-.006h0c.55.092-.539,6.38,3.927,15.395.331.667.786,4.469,1.171,9.241,2.524-5.072,6.887-7.076,13.332-7.877C323.8,196.809,313.12,196.027,309.285,180.071Z" opacity="0.05"/>
      <path d="M369.658,194.949c2.6-6.438,2.815-13.02,3.155-14.878-3.155,14.878-13.588,16.739-21.187,17.609,2.861.511,13.887,3.072,17.034,17.377C368.684,206.226,369.264,195.927,369.658,194.949Z" opacity="0.05"/>
      <path d="M317.114,234.781h46.748a4.447,4.447,0,0,0,4.447-4.446H312.667A4.447,4.447,0,0,0,317.114,234.781Z" fill="#ddddd7"/>
      <path d="M368.309,230.335H312.7l-8.437-30.911a2.638,2.638,0,0,1,2.545-3.333H374.2a2.638,2.638,0,0,1,2.545,3.333Z" fill="#ddddd7"/>
      <path d="M345.417,216.488c0,1.5-2.323,2.716-5.188,2.716s-5.188-1.216-5.188-2.716,2.323-2.715,5.188-2.715S345.417,214.988,345.417,216.488Z" fill="#fff"/>
      <g>
        <path d="M336.007,250.863a13.109,13.109,0,0,1-1.311.4,142.554,142.554,0,0,1-22.379,2.271c-7.516.092-8.463,3.64-8.419,5.64s4.2,6.483,7.291,6.878c9.541,1.219,21.025-3.136,23.313-3.363,4.766-.475,7.294-3.905,7.577-5.824,0,0-4.531,1.251-3.567-.988a3.62,3.62,0,0,0-2.448-4.887C335.915,250.953,335.879,250.916,336.007,250.863Z" fill="#3f3533"/>
        <path d="M314.24,263.974a13.4,13.4,0,0,0-1.135-10.454c-.263.006-.531.014-.788.017-7.516.092-8.463,3.64-8.419,5.64s4.2,6.483,7.291,6.878c9.541,1.219,21.025-3.136,23.313-3.363a9.39,9.39,0,0,0,5.318-2.242C333.4,262.145,314.129,266.986,314.24,263.974Z" fill="#ede6d2"/>
        <path d="M331.6,259.194h0a.53.53,0,0,1-.527-.534l0-.489a11.6,11.6,0,0,0-1.736-6.177.531.531,0,1,1,.9-.559,12.659,12.659,0,0,1,1.895,6.743l0,.489A.53.53,0,0,1,331.6,259.194Z" fill="#e6e7e8"/>
        <path d="M328.517,259.685h0a.53.53,0,0,1-.528-.533l0-.489a11.6,11.6,0,0,0-1.737-6.178.531.531,0,0,1,.9-.558,12.659,12.659,0,0,1,1.895,6.743l0,.488A.53.53,0,0,1,328.517,259.685Z" fill="#e6e7e8"/>
        <path d="M325.4,260.083h0a.532.532,0,0,1-.528-.534l0-.488a11.6,11.6,0,0,0-1.736-6.179.531.531,0,1,1,.9-.559,12.652,12.652,0,0,1,1.9,6.744l0,.488A.531.531,0,0,1,325.4,260.083Z" fill="#e6e7e8"/>
        <path d="M322.752,260.384h0a.53.53,0,0,1-.528-.533l0-.488a11.6,11.6,0,0,0-1.736-6.18.531.531,0,0,1,.9-.558,12.667,12.667,0,0,1,1.895,6.744l0,.488A.53.53,0,0,1,322.752,260.384Z" fill="#e6e7e8"/>
      </g>
    </g>
    <path d="M414.612,222.518h0a9.924,9.924,0,0,0-.181-1.127c-.01-.048-.02-.1-.031-.144h0c-.033-.14-.068-.279-.106-.418h0c-.02-.073-.04-.146-.062-.219h0a11.241,11.241,0,0,0-.446-1.233l-.012-.03h0c-.067-.155-.139-.308-.213-.461h0l-.032-.067c-.094-.191-.195-.38-.3-.566l0,0c-.024-.042-.046-.084-.07-.125h0c-.1-.171-.206-.339-.315-.5l0-.005c-.017-.025-.032-.051-.049-.076h0c-.129-.192-.263-.38-.4-.564h0a8.938,8.938,0,0,0-9.8-3.283l-.2.114a11.9,11.9,0,0,0-2.2.554c-3.144,1.107-13.263,4.547-22.842,8.523a5.906,5.906,0,0,0,.315-1.891H370.86l.193-.709c5.427-2.287,22.983-6.547,21.092-18.366-.977-6.106-7.45-34.439-16.807-41.481-5.273-3.994-12.7-6.9-21.493-8.186a2.651,2.651,0,0,0,.49-.822,32.774,32.774,0,0,0,.851-5.772q.309-.772.6-1.607a4.467,4.467,0,0,0,1.228-.741c1.2-1.074,2.17-5.884,1.671-8.22a1.619,1.619,0,0,0-.616-.9,62.864,62.864,0,0,0,.409-15.136c-2.084-7.95-10.418-9.717-17.812-9.313V260.817a41.683,41.683,0,0,0,4.223-.081c.1.05.208.1.318.149.071.03.148.057.22.086.113.045.223.091.342.133.089.031.187.059.28.088.11.035.217.072.333.105s.231.057.347.085.208.055.317.078c.133.029.275.052.414.077.1.018.2.039.307.056.169.026.348.046.526.066.084.01.162.023.247.032a44.863,44.863,0,0,1,4.752,1.22l1.42.4c.981.275,2.027.564,3.1.846.269.07.54.141.812.21.544.139,1.093.276,1.643.407.825.2,1.652.383,2.466.55.543.111,1.08.213,1.607.305a22.958,22.958,0,0,0,5.575.425,20.177,20.177,0,0,0,5.83-1.248c4.249-1.735,4.233-4.644,4.265-6.144h0a2.556,2.556,0,0,0-.02-.366c-.006-.044-.017-.09-.025-.134-.014-.083-.029-.166-.051-.251-.015-.057-.036-.115-.054-.173-.024-.075-.049-.149-.079-.225s-.057-.132-.088-.2-.067-.138-.105-.207-.081-.146-.127-.219-.081-.124-.124-.187c-.055-.079-.111-.159-.174-.238-.042-.053-.088-.106-.133-.159-.075-.088-.15-.175-.235-.263-.032-.033-.07-.066-.1-.1-.075-.074-.148-.148-.231-.221a105.674,105.674,0,0,0,13.869-9.158c13.279-5.544,16.166-10.339,21.551-19.81a5.549,5.549,0,0,0,.444-1.016h0c.021-.066.038-.135.057-.2a6.731,6.731,0,0,0,.2-.926h0c0-.03.007-.06.011-.091.022-.167.04-.335.051-.507h0c0-.022,0-.045,0-.067a8.9,8.9,0,0,0-.029-1.362Zm-45.153-26.427c0-.031.007-.069.011-.1l.011-.087c.017-.134.034-.256.05-.364l.008-.055c.019-.115.037-.213.054-.3l.012-.052a1.442,1.442,0,0,1,.053-.189,38.237,38.237,0,0,0,1.832-6.012,66.222,66.222,0,0,0,.673,7.154Z" fill="#231f20" opacity="0.05"/>
  </g>
</svg>
