<svg xmlns="http://www.w3.org/2000/svg" width="149.499" height="149.499" viewBox="0 0 149.499 149.499">
  <g>
    <g>
      <path d="M95.725,76.041V94.778a33.172,33.172,0,0,1-33.17,33.176v-.368a20.449,20.449,0,0,0,0-40.16V76.041Z" fill="#d9780a"/>
      <circle cx="58.691" cy="107.505" r="17.273" fill="#d9780a"/>
      <path d="M95.725,21.545v51.72H62.555V50.9C62.555,32.583,77.406,21.545,95.725,21.545Z" fill="#d9780a"/>
    </g>
    <path d="M74.749,147.5A72.75,72.75,0,1,1,147.5,74.75,72.831,72.831,0,0,1,74.749,147.5Zm0-141.5A68.75,68.75,0,1,0,143.5,74.75,68.827,68.827,0,0,0,74.749,6Z" fill="#d9780a" stroke="#d9780a" stroke-miterlimit="10" stroke-width="4"/>
  </g>
</svg>
